/* XPM */
static char *exit[] = {
/* columns rows colors chars-per-pixel */
"64 64 256 2 ",
"   c #010101",
".  c #0B0302",
"X  c #03030A",
"o  c #090807",
"O  c #130A05",
"+  c #1A140C",
"@  c #130E14",
"#  c #25150B",
"$  c #261A15",
"%  c #301E1A",
"&  c #382717",
"*  c #2D230F",
"=  c #3B2F25",
"-  c #231B21",
";  c #46331D",
":  c #4A3826",
">  c #533E29",
",  c #463C33",
"<  c #5B4429",
"1  c #574A30",
"2  c #66482A",
"3  c #765834",
"4  c #6C5231",
"5  c #5A421C",
"6  c #3B6A65",
"7  c #3A6054",
"8  c #445D59",
"9  c #4A7059",
"0  c #6E6A54",
"q  c #4F766A",
"w  c #675E62",
"e  c #88653B",
"r  c #F27236",
"t  c #D66B3F",
"y  c #945353",
"u  c #B05C4F",
"i  c #896848",
"p  c #987448",
"a  c #937253",
"s  c #B76959",
"d  c #BA7756",
"f  c #AB6E4C",
"g  c #AE5763",
"h  c #8C7273",
"j  c #B8746A",
"k  c #CB5B52",
"l  c #E75B4D",
"z  c #EB5853",
"x  c #DB6857",
"c  c #D8745C",
"v  c #CB6C53",
"b  c #E66549",
"n  c #E77849",
"m  c #EA6A55",
"M  c #F16857",
"N  c #EA7858",
"B  c #F3775A",
"V  c #F57B4C",
"C  c #DB6A65",
"Z  c #CD756B",
"A  c #E87862",
"S  c #F57964",
"D  c #F66D66",
"F  c #D65F65",
"G  c #578F75",
"H  c #6F8B6D",
"J  c #72A975",
"K  c #5DB372",
"L  c #FA8B3A",
"P  c #FA9939",
"I  c #F3892F",
"U  c #FDA439",
"Y  c #F7A736",
"T  c #FF910D",
"R  c #FEC73B",
"E  c #AA8653",
"W  c #B78756",
"Q  c #B28D52",
"!  c #8F8B6A",
"~  c #B79368",
"^  c #BA957C",
"/  c #AC8D72",
"(  c #A8A570",
")  c #C8985B",
"_  c #CF894F",
"`  c #E98648",
"'  c #FA8948",
"]  c #FB9848",
"[  c #EC875B",
"{  c #F38B5C",
"}  c #F98856",
"|  c #EC975A",
" . c #F99759",
".. c #D6A35B",
"X. c #FBA648",
"o. c #FAA559",
"O. c #FAB75A",
"+. c #EEAF52",
"@. c #C8876A",
"#. c #DA8A77",
"$. c #D99675",
"%. c #CC9070",
"&. c #EA8967",
"*. c #F38C65",
"=. c #FD8C6B",
"-. c #F78867",
";. c #EB9969",
":. c #FC9464",
">. c #FC9C65",
",. c #F5936B",
"<. c #FC956D",
"1. c #FC9B6C",
"2. c #F49867",
"3. c #E88578",
"4. c #FC8D74",
"5. c #F98776",
"6. c #E7997A",
"7. c #F59472",
"8. c #FE9475",
"9. c #F59C74",
"0. c #FD9C73",
"q. c #FD9C7B",
"w. c #F8977B",
"e. c #C8A269",
"r. c #D9A869",
"t. c #D8A675",
"y. c #CEB177",
"u. c #E8A76A",
"i. c #FCA36C",
"p. c #FCAC6D",
"a. c #F8A768",
"s. c #E9B56A",
"d. c #FCBC65",
"f. c #FDB56D",
"g. c #FEBD6C",
"h. c #F6BB68",
"j. c #E8A977",
"k. c #F5A475",
"l. c #FCA374",
"z. c #FDAC75",
"x. c #F6A47D",
"c. c #FDA37C",
"v. c #F5AB7D",
"b. c #FDAC7C",
"n. c #F4AB74",
"m. c #E8B877",
"M. c #FDB474",
"N. c #F5BC72",
"B. c #FDBD73",
"V. c #FDB37C",
"C. c #FDBC7B",
"Z. c #F5B679",
"A. c #89C27E",
"S. c #FEC25A",
"D. c #F9D54A",
"F. c #FCC265",
"G. c #FEC26C",
"H. c #F8C66B",
"J. c #F4C375",
"K. c #FDC374",
"L. c #FDCA75",
"P. c #F6C47C",
"I. c #FEC47C",
"U. c #FDC97D",
"Y. c #F5CC78",
"T. c #EEC96D",
"R. c #C2CA77",
"E. c #7B7896",
"W. c #72728B",
"Q. c #8C7B8F",
"!. c #927EA1",
"~. c #718596",
"^. c #72B088",
"/. c #679B8F",
"(. c #76C797",
"). c #64D88D",
"_. c #7ADEA2",
"`. c #978687",
"'. c #8A8798",
"]. c #978998",
"[. c #98959A",
"{. c #8C8C97",
"}. c #A88A8A",
"|. c #B98B88",
" X c #A89499",
".X c #B09191",
"XX c #BAA48A",
"oX c #B8A59A",
"OX c #978BA8",
"+X c #9797A7",
"@X c #9698B3",
"#X c #8A90A8",
"$X c #A79CA5",
"%X c #B79AA5",
"&X c #A895AC",
"*X c #9DA1B4",
"=X c #A7A7AA",
"-X c #B7A7A7",
";X c #B7B5AA",
":X c #A7A7B6",
">X c #B5A9B3",
",X c #B7B7B8",
"<X c #ABB2AE",
"1X c #D59C86",
"2X c #C69B97",
"3X c #D49792",
"4X c #C99888",
"5X c #E89A86",
"6X c #F99A84",
"7X c #C9A887",
"8X c #D7A88C",
"9X c #CAA598",
"0X c #D2A495",
"qX c #D5B589",
"wX c #E9A786",
"eX c #F5A482",
"rX c #FDA483",
"tX c #F3AB83",
"yX c #FDAB83",
"uX c #FDA58A",
"iX c #FDAA8B",
"pX c #F3A88B",
"aX c #E6B685",
"sX c #FDB382",
"dX c #FDBC82",
"fX c #FCB38B",
"gX c #F4B886",
"hX c #F9AA94",
"jX c #F8B598",
"kX c #E6AC94",
"lX c #C3B1AC",
"zX c #87CB93",
"xX c #84CFA4",
"cX c #FEC582",
"vX c #FDCA82",
"bX c #FEC38A",
"nX c #F7C787",
"mX c #F8CB89",
"MX c #C7C5B8",
"NX c #D3C9BC",
"BX c #DAD8BC",
"VX c #CAD5BB",
"CX c #E2DCBC",
"ZX c #F2DEB9",
"AX c #E7E7BB",
"SX c #F1EDBF",
"DX c #DDDB99",
"FX c #B3B6C2",
"GX c #ADABC0",
"HX c #AF9AC5",
"JX c #C4BCC8",
"KX c #BDCAC3",
"LX c #CAC9C4",
"PX c #D4D3C4",
"IX c #E7E6C5",
"UX c #DFDEC9",
/* pixels */
"L  .<.8.0.1.1.c.tXuXyXyXx.c.c.c.0.k.z.M.Z.Z.C.I.I.L.I.K.K.g.P.L.I.I.I.I.I.M.V.v.iXb.b.b.V.sXM.g.T.g.a.1.uXwXtXc.x.9.8.:.8.| :.' ",
":.<.>.1.1.<.,.c.iXrXc.yXyXiXiXx.b.V.C.dXI.I.I.C.I.K.K.K.K.K.I.I.I.I.I.I.K.I.dXcXV.V.M.B.d.d.g.g.B.M.M.J.G.O.I.9.;.i.-.7.9.>.:.| ",
"1.0.c.0.0.l.c.x.uXrXc.yXhXuXyXV.cXcXcXI.I.I.I.I.I.I.K.K.K.K.I.I.K.B.B.B.B.K.I.cXZ.M.B.B.B.I.K.L.K.M.n.p.a.+.;.~ 5X<.j.5X:.8.8.c.",
"i.c.uX9.0.<.0.6Xx.V.b.x.eXeXdXcXP.U.U.U.U.I.I.I.cXI.K.B.K.K.I.I.K.K.B.G.g.G.B.I.I.K.J.B.C.cXK.h.M.f.p.9.q.6X@.q 0 ! ).( a.1.:.:.",
"6Xb.M.M.b.S m m n.Z.gXdXcXcXC.C.P.I.I.U.U.I.I.I.I.I.I.g.B.K.K.I.K.g.B.g.G.G.H.K.I.K.I.K.K.K.B.n.v.z.>.:.:.,.! 8 9 K (.XX:.| q. .",
"b.M.M.N.x.A m N a.C.cXP.K.I.U.cXI.I.I.I.U.U.I.I.cXI.K.g.g.g.B.K.d.g.g.g.g.d.g.K.I.I.I.I.dXdXC.b.l.l.9.<.i.<.v H ^.H / a 7.8.4.:.",
"h.B.B.C.v.-.=.| [ Z.vXU.I.U.U.K.I.I.I.I.I.I.cXvXI.I.B.K.G.g.g.K.g.g.g.K.G.G.G.K.cXI.I.V.tXpXb.p.a.1.w.,.8.@.e _ }.f u.a d 0.1.>.",
"mXB.g.K.V.&.c.u.&.Z.J.U.I.nXcXL.U.I.I.U.I.I.I.I.I.I.B.G.g.g.g.g.G.K.g.g.g.g.g.g.K.I.I.I.B.C.V.V.z.yXk.i.2.c v X.s.+.D.` u X.q.l.",
"M.J.J.I.V.*.n.V.[ &.N N ;.n.J.bXP.U.I.I.I.cXvXU.I.I.I.K.K.g.g.G.g.d.g.G.G.G.B.K.I.I.I.I.I.I.I.I.cXC.tXi.u.Z ` +.S.H.O.' s p.6XV.",
"cXU.U.vXdX{ n.P.<.M l z x ;.C.I.U.I.P.I.I.I.cXI.cXI.I.I.K.K.K.g.g.g.g.G.K.K.K.K.I.I.I.I.I.I.I.I.I.cXV.yXl.Z k P O.O.X.t j h.j.Z.",
"vXI.P.vXcX{ p.Y.i.M l z m ;.U.I.L.I.J.K.cXI.cXI.I.I.I.I.I.I.K.B.g.B.B.K.I.K.L.I.I.I.I.I.I.I.I.K.H.C.dXV.c.Z v ' P X.] c f cXsXbX",
"P.I.I.cXb.} z.vXn.M z N &.j.J.M.M.B.K.L.I.cXI.C.I.I.I.I.I.I.I.K.I.I.I.I.I.I.I.I.I.I.I.K.I.K.B.B.K.C.J.I.b.) d } U X.] v u fXuXbX",
"C.cXU.i.-.m -.b.x.M M *.c ;.M.|  .f.B.K.I.I.cXI.I.I.I.cXcXI.I.I.I.I.I.I.I.vXI.cXI.I.I.I.K.K.K.g.B.cXL.U.h.m.p ` U ] ] u 6.jXq.sX",
"K.I.P.N b l m -.1.S } <.&.:.>.{ [ p.K.I.U.I.I.U.I.L.I.I.I.I.I.I.I.I.I.U.I.I.I.I.I.I.I.I.I.I.I.I.I.cXK.N.f.bXj m  .L n s x.sXz.gX",
"I.cXP.n M N m B *.7.;.*.N N [ k.2.M.U.U.U.I.I.L.I.I.U.I.I.I.I.I.U.U.I.I.I.cXU.I.I.I.cXI.I.I.I.I.L.K.dXH.g.sXZ.7.z.a.:.wXpXb.p.wX",
"C.C.C.N S =.b b =.9.yX4.z x { V.u.Z.P.L.vXI.I.U.U.U.I.I.I.I.U.I.U.I.I.I.I.U.I.I.I.I.U.I.I.I.U.cXL.H.M.K.S.g.N.f.J.C.sXgXhXeXb.uX",
"v.iXdXN -.9.S N B k.n.&.D M ;.b.<.z.cXU.I.I.I.cXI.U.cXI.I.I.I.I.cXcXcXcXcXcXcXI.U.vXU.U.I.U.I.K.cXK.G.g.d.g.d.g.g.B.B.M.x.rXrX6X",
"b.yXcXN -.b.8.N M 8.uX7.-.B *.,.n [ V.cXU.P.I.I.vXI.U.U.P.U.U.U.I.Y.K.U.U.L.U.vXL.L.K.U.U.I.cXvXI.I.G.g.G.g.K.g.g.G.B.M.V.yXc.0.",
"n.b.dX7.&.c.uX-.B =.q.,.-.,.-.B m N n.cXvXI.I.I.I.I.I.I.I.cXcXcXI.cXI.I.I.I.cXI.L.K.K.U.I.cXI.C.I.K.B.g.g.g.B.B.d.h.G.B.V.b.l.,.",
"l.rXjXyXS 7.yXrX . . .` *.c.=.B S N b.cXU.U.L.K.I.K.I.I.I.I.I.I.K.I.I.U.I.cXI.I.bXcXbXI.I.I.K.K.K.K.g.g.g.g.g.g.G.G.G.B.M.b.1.<.",
"c.uXpXuX5.6XuXrXi. .o. .:.1.-.&.8.&.sXcXI.I.I.I.vXvXvXvXP.P.U.U.U.vXU.I.P.cXI.P.cXcXvXI.B.h.d.g.g.G.F.d.g.d.G.g.B.G.G.f.p.i.0.:.",
"b.b.tXyXc.rXyXx.x.x.tXb. .} } 9.w.6.dXmXcXcXcXcXP.P.P.cXI.I.cXI.I.U.I.I.I.I.I.I.K.L.K.G.g.G.g.g.G.g.g.g.g.G.g.g.B.B.g.f.p.1.<.4.",
"b.M.V.M.C.v.V.v.yXiXfXC.o.]  .M.k.n.bXnXcXI.I.U.L.L.I.U.C.m.t.r.r.r.r.m.m.N.U.vXvXL.L.K.g.K.K.g.B.B.g.G.g.G.g.K.B.g.G.g.f.l.0.8.",
"I.h.C.f.K.M.M.M.yXz.p.H.O.a.g.f.V.cXcXJ.I.I.cXJ.t.W p e 2 < < < : : : < 2 4 3 a Q t.gXcXcXI.P.U.B.B.B.B.g.g.B.g.K.g.d.g.B.b.c.c.",
"g.g.h.G.g.G.g.G.f.g.f.Z.I.d.d.B.f.f.I.cXr.Q a 4 , = - + . X               o + + & > 4 e Q u.G.O.d.B.B.g.J.F.H.f.G.g.g.g.B.n.c.q.",
"B.B.B.K.K.G.g.f.K.f.K.K.h.K.g.O.F.h.e.p 2 & # O .               X           o       . + & : i e.C.G.G.G.g.f.G.g.G.g.d.g.C.sXrXc.",
"M.C.C.K.I.K.g.B.K.B.g.G.d.C.B.G.T.Q 5 + X X X                                   X X     o   $ 1 f r.F.F.g.B.g.G.g.g.d.K.I.dXyXrX",
"l.b.V.C.I.J.K.K.G.f.g.F.G.B.I...i & .     X   o . .                               .           . * e ) G.g.M.K.H.K.K.G.K.I.V.b.l.",
"0.q.b.C.I.P.I.C.K.g.K.B.g.K.t.3 @ .   X                                         o     X X     . o + < e.K.g.K.F.cXI.K.I.I.V.l.:.",
"0.0.l.V.dXI.I.I.K.K.I.B.H.J.e #   X X X   O     X X X                           o               o   + 3 N.K.h.G.nXvXI.U.C.z.1.:.",
"0.0.0.z.C.vXL.I.K.I.K.K.vX) * X   o                                                       . .     X   # ~ U.h.I.U.cXI.vXdXk.1.<.",
"9.l.1.z.C.vXU.U.I.I.K.H.I.i . X . .   X                                                 X     X .     . 3 vXG.cXI.I.I.cXC.k.0.q.",
"f.yXrXv.I.I.I.I.K.I.cXG.T.4 o   .         X                                     o o               .   X 2 I.B.vXJ.I.K.L.dXx.l.M.",
"f.V.rXV.I.I.I.cXI.cXcXI.vXi . . .       X   X                                                   X .     4 Y.cXvXcXcXI.K.I.yXb.M.",
"B.V.c.V.I.I.I.I.I.cXI.I.vXE #   .         o                                     X     .       .   o   O E U.nXI.P.vXI.J.B.V.M.M.",
"f.b.c.z.K.I.I.I.L.K.I.I.K.u.2     .                                                       X       X . : r.L.P.U.P.cXI.N.g.b.b.M.",
"n.c.0.n.B.K.I.L.U.I.K.K.g.g.W : o     X o     o                                         X X X   X o ; E C.B.mXK.U.I.B.K.M.l.c.b.",
"x.rX0.p.B.B.C.K.cXU.K.Z.V.f.O.) 1 + X X X   X X                                                 o > Q g.G.M.bXF.J.K.C.B.M.0.9.c.",
"c.q.0.p.B.V.C.B.I.dXZ.V.yXV.d.F.t.e & .                                         o         . . * 2 @.H.H.O.g.cXK.K.I.K.K.g.i.0.c.",
"1.0.<.i.M.V.sXV.f.M.M.V.x.sXf.f.d.s.p 1 = $ .                                         o $ = 1 E +.B.B.K.H.F.N.f.J.C.C.G.f.i.1.l.",
"1.1.<.i.yXx.iXtXx.iXiXeXuXz.M.gXB.M.B.s.) p 2 ; $ O .       X           X o   o + $ ; > a ~ ..K.g.G.G.f.d.L.U.aX9XXX8Xu.O.a.=.1.",
"8.0.q.c.uXv.iXiXrXyXsXyXb.f.d.B.F.H.K.K.U.vXy.e.a 3 < ; & & & $ # $ # - * & : 1 4 H _ O.vXC.S.F.C.B.g.G.L.aX7XXX:X+X'.}.aXc.1. .",
"<.0.rXyXgXv.pXpXrXrXx.uXc.p.p.M.B.B.C.cXI.I.U.I.mXZ.m.r.~ Q E p p p p E Q Q ! / tXU.T.Y.aXN.O.d.F.g.h.N.qX.X=X>X,X<X#X'.3X9.c.<.",
"1.i.b.tXkX8X8X0XkXwXwX6X9.i.0.b.yXx.v.dXcXC.I.I.K.B.U.vXL.Y.Y.U.mXI.Y.K.H.e./.q J m.qXzXK y.L.B.K.G.cXqX}.$XlXPXCXNX=XE.~ j.f.2.",
"c.b.j.7X XOX]. X$X2XwXhX0.1.>.>.yXV.sXI.I.U.U.K.U.I.K.J.cXcXcXI.P.C.mXnXvXy.8 6 9 ! ^.(.A.DXf.K.K.g.gX.X[.,XCXIXUXNX,X'.`.y.sXa.",
"rXZ.m.}.'.~.{.+X+XoX2X3X5Xv.rXi.k.l.z.M.B.J.U.vXnXcXcXcXvXcXI.I.Y.I.I.C.bX^ 8 6 8 9 ^.xXzXR.h.B.B.f.y.`.=XIXAXIXAXLX;XOX'.}.fXrX",
"b.V.m.`.'.#X=X;XFX;X X!..X0XjXjXbXyXb.yXdXcXcXI.cXvXvXI.I.K.K.L.K.vXK.G.U./ 7 q (.^.zXH 0 e.K.m.wXkX}.~.;XSXAXUXVX,X#X#X'..XwXrX",
"uXtXt.Q.Q.+XlXLXLX;X=X'.[.XXaXJ.C.sXyXrXsXcXvXK.K.I.K.I.cXcXcXbXK.bXP.Y.nXd 0 / J G j c i ~ gXs.4XQ.E.'.,XZXAXVX>XHX@X#X X|.wXhX",
"z.) `.W.E.FXLXLXUXIXNX-X+X'.;Xm.jXY.I.hXfXC.K.L.P.I.I.I.I.I.I.I.nXmXdXvXQ y v ..H h &.+.v e e.|.{.#X[.@X<XVXLXlX:X-X X=X9X3Xj.yX",
">.$.h W.'.,XMXIXCXCXBX,X=X+X X7XbXvXU.dXJ.K.M.U.U.vXvXI.U.I.I.U.K.vXL.d.W f L X.P ` +.D.X.f }.`.@X,XlX$X$X-X,XGX=XXXXXXX7X4X5X<.",
"0.@.W.'.:XFXPXIXAXAXIXUXMX-X'.oXaXnXcXK.H.N.dXcXU.U.I.I.I.I.I.I.K.P.vXcX&._ X.O.T.H.D.D.X.v ^ 7X8XqXqX9X7XwX/ /.H {.a ^._.K |. .",
"&.%Xw [.'.FXLXBXIXSXSXAXCXMX'.[.8XgXbXC.I.sXsXP.vXcXI.L.I.I.I.U.L.I.vXaX_ ` X.+.O.S.D.R Y W @.H.B.O.K.L.T.K.s.8 9 G 6 ^.(.! =.L ",
"Z ].Q.W.@X@XMXVXIXIXAXAXAXCX+X[.}.wXgXsXsXc.yXC.I.I.I.K.I.K.K.I.I.bXI.m.Z b | O.+.O.O.X.' k @.J.K.g.F.h.M.f.a.! J ^.9 / ~ ;. .` ",
"Q.].OX!.@XOX:X,XMXAXAXIXSXCX[.W.W./ t.aXtXl.c.M.M.B.B.K.G.B.M.B.b.v.tXuXc g S  .X.d.O. .C g %.8Xm.P.M.B.K.v.$.! _.^.0 n -.' I L ",
"kX4XQ.&X#X@X*X>XLXBXCXIXIXUX XE.W.Q.|.oXwX9.q.7.p.f.K.B.g.g.B.g.z.z.iX6Xv v } I P Y U L N F Z &.*.Z.L.+.H.Z.g w G H / ] ` B T I ",
"3X1XQ..X@X#X@X:X=X;XBXAXVXLX=XOX~.Q.E.!..X$.rXq.a.f.g.g.h.K.g.f.V.v.uXl.j C L U Y  .X.P ' s Z [ D #.m.N.dXv.d ` S.nXT.R +.x L L ",
"5X5X1X2X%X X-X<X=X,XLXMXMX,X+X@X+X&X+X#X].2XpX0.c.b.b.b.sXyXb.x.6X0.c.k.j y I X.U P X.X.n y j 5.N A 6.tXgXeX5Xw.r.DXO.` m C ] P ",
"0.l.5X5X3X3X2X2XlX,X,XFXFX:X&X>XGX,X:X#XE.`.1Xc.c.b.yXb.x.c.c.c.q.i.rXyX#.y n ] Y ] P P n Z 3.V { B A &.&.B v C  .X.} 5.g Z i.r ",
"' :.q.tXuXpXhXkX0XoX-X-X%X%X XoXlXlX-X%X X|.wXl.9.v.c.c.rXc.8.1.1. .uXuX1Xg k ' ' L L } k u S S 9.5.M N [ A D M | ] r C F s q.,.",
"} ,.uXtXfXpXpXeX3X9X2X9X2X9X2X-X9X0X0X7X|.%.5X6Xq.yXtXyXiXrX0.1.8.>.c.rXw.j Z [ ] } ` m #.4X5X3.i.4.M b B 5.4.[ &.` L } u v z.2.",
"b A 6X6XyXuXuXyXwX9.0.<.9.x.pXkXgXiXx.0.1.9.l.:.8.iXyXrXuXx.0.2.4.:.,.1.9.pX5XS 0.2.{ 4.5XjXq.2.*.>.=.S k.M.i.B &.6.-.x f #.x.$.",
"M B 0.0.c.rXc.c.c.0.0.k.tXtXiXuXyXrXrXpXpXuX0.M 4.sXsXyXyXv.sXM.-.B *.1.q.sX6X6X9.x.9.iXjXkXtXv.;.t.$.6.6.m.t.$.7.wX7.4XZ jXl.I ",
"m V  .1.c.yXtXb.l.1.1.c.b.x.c.c.v.yXiXyXeXx.<.N *.Z.C.V.V.Z.C.M.*.M S <.0.x.7.q.q.8.9.rXhXjXhX3.6.t.6.wXwX7X1X$.1X5XfX6Xj.c.8.b ",
"m r }  .rXuXyXeX9.q.q.6XrXiXrXpXyXyXrXc.c.l.4.N { cXY.K.cXcXC.a.} z D N *.c.0.1.7.w.sXx.c.4.n { V.cXyXeXuXM.sX@.g #.U.L.J.;.N g "
};
