/* XPM */
static char *floor[] = {
/* columns rows colors chars-per-pixel */
"64 64 139 2 ",
"   c #E8594B",
".  c #F45046",
"X  c #F25F4F",
"o  c #EB5C54",
"O  c #DA794F",
"+  c #DF6C54",
"@  c #D37859",
"#  c #DB7858",
"$  c #E3634A",
"%  c #E86B4D",
"&  c #E6764E",
"*  c #E76251",
"=  c #E76D55",
"-  c #ED6059",
";  c #F86C51",
":  c #EA755D",
">  c #E37E5E",
",  c #EC795E",
"<  c #F27455",
"1  c #F27259",
"2  c #FA7258",
"3  c #F37D5C",
"4  c #FC6E64",
"5  c #E17D63",
"6  c #EC7D64",
"7  c #F57F65",
"8  c #FD8D3B",
"9  c #F9913C",
"0  c #DA8755",
"q  c #DD815A",
"w  c #DF885B",
"e  c #DE9159",
"r  c #FC8D44",
"t  c #EC825A",
"y  c #EB8A5B",
"u  c #F08557",
"i  c #F3825B",
"p  c #F38C5C",
"a  c #FD9453",
"s  c #FF9C52",
"d  c #FE965B",
"f  c #FD9B5C",
"g  c #FDA34D",
"h  c #FFA053",
"j  c #FEA956",
"k  c #DD9563",
"l  c #EE8160",
"z  c #E98C60",
"x  c #E58F6C",
"c  c #EB896A",
"v  c #F38263",
"b  c #FB8263",
"n  c #F68B67",
"m  c #F3876B",
"M  c #F28B6C",
"N  c #FC896C",
"B  c #E29166",
"V  c #EE9761",
"C  c #E8966E",
"Z  c #EA9B6C",
"A  c #F69666",
"S  c #FF9666",
"D  c #F49A66",
"F  c #FD9A65",
"G  c #F79169",
"H  c #FE966C",
"J  c #FE9A6C",
"K  c #EA8370",
"L  c #F58B71",
"P  c #FE9572",
"I  c #F49C74",
"U  c #FE9C73",
"Y  c #F69079",
"T  c #FC927A",
"R  c #F39C7A",
"E  c #FF9E7A",
"W  c #EFA461",
"Q  c #EBAC67",
"!  c #EDA46D",
"~  c #FFA667",
"^  c #F4A06D",
"/  c #FDA36D",
"(  c #F7AB6F",
")  c #FDAC6D",
"_  c #E5B26A",
"`  c #ECB86C",
"'  c #FFB362",
"]  c #F4BD65",
"[  c #FEBE67",
"{  c #F5B16A",
"}  c #FEB46D",
"|  c #F5BD6A",
" . c #FEBD6C",
".. c #EFA576",
"X. c #F7A272",
"o. c #FDA374",
"O. c #F6A975",
"+. c #FDAC74",
"@. c #F6A47C",
"#. c #FEA47B",
"$. c #F5AB7B",
"%. c #FDAC7C",
"&. c #EDB874",
"*. c #F3B375",
"=. c #FDB473",
"-. c #F1BB75",
";. c #FEBC72",
":. c #F3B47E",
">. c #FEB37B",
",. c #FEBC7C",
"<. c #F5C265",
"1. c #FBC165",
"2. c #F7C36D",
"3. c #FDC16C",
"4. c #FBC86F",
"5. c #F5C274",
"6. c #FEC274",
"7. c #FDC876",
"8. c #F6C67B",
"9. c #FFC57C",
"0. c #F6C978",
"q. c #FDC97D",
"w. c #F3A681",
"e. c #FEA583",
"r. c #F6AB82",
"t. c #FEAA83",
"y. c #FEA689",
"u. c #FEAB89",
"i. c #F7B680",
"p. c #FEB482",
"a. c #F6B983",
"s. c #FEBB82",
"d. c #FEB289",
"f. c #F7BB89",
"g. c #FFBC8D",
"h. c #FEC482",
"j. c #FDC983",
"k. c #FDC68C",
"l. c #FCCB8A",
/* pixels */
"D S N J J J o.e.r.@.r.r.w.e.E J H U X.O.;.,.9.9.9.9.6.6.6.6.6.6.9.8.8.7.7.;.=.>.%.e.t.y.r.>.;. . .} ~ / o.#.t.u.r.#.o.U H J J J ",
"S S J F D U #.r.e.u.#.#.u.e.I o.o.%.>.=.,.q.9.9.9.9.6.6.6.;.6.7.9.9.9.9.6.9.,.>.e.%.e.%.>.=.;.[ [  .} +.>.%.%.%.#.#.E U H H J J ",
"X.A U U U M , 6 K y.u.%.t.r.%.%.>.>.,.9.9.9.9.9.9.9.6.;.6.9.9.8.9.9.9.9.9.9.,.s.u.t.+.=. . . . .<.|  .;.;.=.>.+.o.o.J J J H J J ",
"X.U E #.#.G < N 5 c X.t.r.d.p.:.,.,.9.9.9.9.q.9.9.9.6.6.;.9.9.9.;.9.;.5.6.6.9.h.s.>.;. . . .;.6.1. .;.=.) ) +.o.J J J J H J F J ",
"U t.r.I #.H i ,.@.# c T Y I $.h.9.q.q.8.8.q.q.9.9.9.6.6.9.9.q.9. .6.;.3.3.6.5.9.9.;.6.;.6.9.6.;.;.>.+.X./ / J J J J J J J J J J ",
">.p.r.@.p.I u h.>.z = o - = 0 9.9.q.q.9.9.9.9.h.9.6.6. . .;.6.6.3. .[  .[ 3.3.6.3.7.9.8.9.q.,.;.+.o.E U J S H H J J J J J J J S ",
";.+.%.e.d.Z t i.s.o.%   4 : w s.q.q.9.9.9.9.9.9.q.9.;.;. .3.;.6.3.[  . . .[  .6.,.q.9.8.,.,.>.+./ U J U J J J U U U o.U U J H J ",
" .,.a.m + $ . 5 F J & 3 P > B g.9.9.,.9.9.9.q.q.9.9.6. .[  .[ 3. .;.;. . .[ [  .h.h.9.,.,.=.+.%./ J H J J J J F o.#.#.o.U H J H ",
"] =.f.6 X 7 2 $ ; P X.e.T 3 y h.k.l.8.9.,.9.9.9.9.9.7.;. . . . .6. .[ [ [ 6. .;.9.9.h.9.s.,.>.%.>.+.X.o.U J J o.e.e.#.+.+.U U J ",
"3.s.u.L 7 E e.N $ 6 I %.U y Z k.k.j.h.q.9.9.9.9.q.q.6.;.6.;. . . . .[  .3.;.;.6.9.9.9.h.h.s.9.,.,.,.>.%.E P U #.e.e.%.+.>.+.o.o.",
"9.l.g.w.m n %.E v t p f d f } l.j.j.9.9.9.9.9.9.9.9.9.9.9.6.6.;.;.[  . . .6.6.,.9.h.q.9.q.q.q.q.q.q.s.>.o.E E e.#.$.>.;.;.%.%.#.",
"8.l.k.l.O.A :.d.>./ f s s ' 7.5.,.9.9.9.9.9.9.9.9.q.9.9.q.6.6.6.3. .6.6.6.9.9.9.9.9.9.9.5.7.6.7.5.q.9.,.>.+.o.%.+.$. . .;.$.e.#.",
"q.,.,.j.j.h.j.h.h.k.h.9.8.q.q.6.;.8.9.q.9.9.9.9.9.9.9.q.9.9.9.,.6.6.;.6.9.9.q.9.h.q.9.9.6.6.;.;.7.9.9.9.,.;.=.=.=.;.;.1. .%.e.e.",
"8.;.9.8.9.j.q.5.| 8.8.8.8.5.| [  .6.;.9.9.q.9.9.9.9.9.9.9.9.9.9.9.9.7.,.9.q.h.,.8.9.9.9.6.6.;. .9.9.9.7.6.6.3.3.;.;.3.[  .%.e.t.",
"8.q.q.j.,.>.9.q.6.2.3.6.6.3.[ 3. .;.6.9.h.9.9.9.9.9.9.9.9.9.9.9.9.9.9.9.9.9.9.9.,.9.9.,.9.,.6.6.9.9.9.6.6. .[ 3. .3.3.[ ;.%.r.t.",
"q.,.*.,.s.>.,.5.9.6.6.6.;.;.6. . .;.6.9.q.h.9.9.9.9.9.9.9.q.h.9.q.q.9.9.9.h.h.9.q.9.9.9.q.q.q.8.9.q.9.8.;.;. .[ [ 3.[ 3.6.p.t.%.",
"6.=.%.t.t.%.>.;.9.9.6.;.6.3.;.;.6.9.9.q.9.9.9.9.9.9.9.9.9.q.9.9.9.9.9.q.q.h.9.9.q.q.9.9.9.9.8.9.9.8.;.6. . . . . . .;.=.p.u.t.t.",
"3.=.%.t.t.%.%.p.,.9.9.9.9.6.6.;.9.7.9.9.9.q.9.q.9.9.h.9.9.9.q.9.9.9.9.9.9.9.9.9.q.9.9.q.9.9.9.q.9.9.6.3. . .3. .6.3. .=.%.t.t.t.",
"[ =.%.t.e.r.%.p.h.h.h.9.q.9.;.6.9.9.9.9.9.9.9.9.9.q.9.9.9.9.9.9.9.9.9.9.9.9.9.9.9.9.9.9.9.9.q.9.9.9.6.6. .[  . .3. . .=.%.%.%.t.",
"=.>.%.t.e.t.t.t.,.9.h.h.q.q.6.7.9.9.9.9.9.9.9.9.9.9.9.9.9.9.9.9.9.9.9.9.9.9.9.q.9.9.9.9.9.9.9.q.9.9.6.;. . . . .[ [  .;.,.%.%.%.",
">.%.t.t.t.t.t.t.;.9.9.q.h.q.9.9.9.9.9.9.9.9.9.9.9.9.q.9.9.9.9.9.q.9.9.9.9.9.9.9.9.9.9.9.9.9.6.9.6.6.6. . . . . . .[ [ ;.;.>.+.#.",
"#.e.e.e.e.t.%.%.;.9.;.9.q.9.9.q.9.9.9.9.9.9.9.q.9.9.9.9.9.q.h.9.9.9.9.9.9.9.9.9.9.9.9.9.9.6.6.;.6. .3.;. . . . . .[ 3. .=.%.o.U ",
"%.%.e.t.e.%.t.t.>.>.,.;.6.9.9.q.h.q.9.9.9.9.9.q.9.9.9.9.9.9.9.9.9.9.9.9.9.9.9.9.9.9.9.9.6.6.6.;. .3. . . . . . .6.[ 3.[ =.) U U ",
"%.e.t.r.%.t.t.t.e.%.>.,.6.6.6.9.h.q.9.9.9.9.9.9.9.9.9.q.9.9.9.9.9.q.h.9.9.q.9.9.9.q.9.6.6.6.6.3.3.;.;. . .[  .[  .[ 3.3.} O.J U ",
"} =.=.=.;.=.%.%.y.t.%.=.;.3.6.7.9.9.q.q.q.9.9.9.9.q.9.9.9.q.9.9.9.9.9.9.9.9.9.9.9.9.9.9.,.6.6.6.;. .;. . .[ [  .| | [ [  .( #.e.",
"[  .;.;.;.;.;.+.p.%.=. . .6.6.6.6.6.9.9.q.9.,.q.9.9.9.9.9.9.9.9.9.9.9.9.q.9.9.9.9.9.9.9.9.9.6.6.6.6.3.3. .[ 3. . . . .[  .=.%.e.",
"|  . .3.[ [  . . .}  . .3. . .6. .6.;.9.9.9.9.h.9.9.9.9.9.9.9.9.9.9.9.9.q.h.9.9.q.9.9.9.9.6.6.6.6. . . . . . . . . . . .[ =.>.%.",
";.6.6. .[ [  .3.[ [  .[  . . .3. . .6.6.9.h.9.9.q.9.9.9.9.9.9.q.9.q.9.9.9.9.9.9.q.9.9.9.9.;.6. . . . . . . .[  .3. . . .6.;.,.s.",
",.,.9.6.6.;.3.6.3. . .;. . .[ 3.[ ;.6.7.q.9.s.q.9.9.9.9.9.9.9.9.9.9.9.9.9.9.9.9.q.q.9.9.9.7.6. .6. . .;.[  . . . . .3.;.7.9.q.s.",
"t.s.h.j.9.9.,.6.3.;. .6.6.6.6.;. .6.6.9.9.9.9.9.9.9.9.9.9.9.9.9.9.9.9.9.9.9.9.q.h.9.9.9.9.9.9.;.6.;.6.6.6.;.3. .5.6.9.9.9.8.s.,.",
"#.>.9.q.h.s.9.6.6.6. .6.9.6.9.q.6.6.9.9.9.9.9.9.9.9.9.9.h.9.9.9.9.q.q.9.9.9.9.9.q.q.9.9.9.q.9.9.6.9.9.6.6.6.6. .7.9.q.h.h.,.,.+.",
"U +.,.8.q.9.q.7.6.3.6.6.6.q.9.h.9.9.9.q.q.9.9.9.9.9.9.q.q.9.9.9.9.9.9.9.9.9.9.9.,.9.h.9.h.9.9.q.9.9.9.9.6.6.3.3.6.6.9.q.j.h.>.o.",
"U o.>.s.q.9.q.h.9.,.6.6.7.,.9.9.h.9.q.9.9.9.9.9.9.9.9.9.9.9.9.9.9.9.9.9.9.q.9.9.9.9.9.9.7.q.q.q.,.6.9.6.9.6.9.9.9.9.8.h.q.,.+.U ",
"U #.>.s.9.9.9.9.9.9.9.6.6.9.6.q.9.9.9.9.9.9.9.h.q.9.9.9.9.h.9.9.h.9.9.9.9.9.9.9.q.9.9.9.9.9.q.h.9.9.6.9.6.6.9.9.9.9.9.9.,.>.+.E ",
"o.#.%.,.,.9.9.9.9.9.9.9.9.;.9.9.h.q.h.9.9.9.9.9.9.9.9.9.9.9.9.9.9.q.9.9.q.9.9.9.9.9.9.9.9.9.9.,.9.9.9.;.9.9.9.9.6.9.8.q.,.>.#.#.",
"t.t.p.>.9.q.q.h.9.9.9.9.9.5.9.6.h.9.9.q.,.9.9.9.9.9.9.q.9.9.9.9.9.9.9.9.9.9.9.9.9.9.9.9.9.9.h.9.9.9.9.6.6.9.9.9.9.9.9.q.s.>.t.y.",
"t.t.p.>.9.9.9.9.8.9.9.9.6.;.6.6.9.9.9.9.9.9.h.9.9.9.9.9.9.9.9.9.9.9.9.9.9.9.9.9.9.9.9.9.9.9.9.9.6.6.6.6.6.9.9.9.9.8.9.9.,.>.t.t.",
"e.#.%.,.9.9.9.8.q.9.9.,.6.6.6.6.6.9.9.9.9.9.q.9.h.9.9.h.h.9.9.9.9.9.9.9.9.9.9.h.9.9.9.9.9.9.7.9.6.6.3.;.6.9.9.9.9.9.6.9.;.=.%.#.",
"o.#.+.>.6.6.9.9.9.q.6.;.;. .6. .3.6.6.9.9.9.9.9.h.9.h.9.9.h.9.h.9.9.9.q.9.9.q.9.9.9.q.9.9.6.6.6. .3.;. .;.6.9.9.q.9.9.6.6.=.+.X.",
"E o.+.=.;.6.6.9.h.q.6.;. . .[  . .6.;.7.9.9.9.9.9.9.h.9.9.h.9.h.q.9.9.9.9.9.9.9.9.9.9.9.9.;.6.3. . .3.6. .6.;.9.9.9.9.3.3.;.} / ",
"/ E o.>. .[ 9.h.9.,.=.=.;.;.;.[ [  .;.9.q.,.9.q.9.9.9.9.q.9.9.9.9.9.9.9.9.9.9.9.8.q.h.s.9.6.3.3.[  . . .3.;.6.3.9.7.6.[ 1.3.) F ",
"F E e.r.>.=.,.>.>.>.>.+.>.;.;.[ [  . .9.9.9.9.q.9.9.9.9.9.9.9.9.9.9.9.9.9.9.9.9.9.9.h.h.9.;.3.3.[  . . . .3.;.6.6.;.;. .3.3.} / ",
"F E e.y.t.%.%.O.r.t.e.%.$.;.;. . . .6.7.9.9.9.9.9.9.9.9.9.9.9.q.9.9.h.q.9.9.9.9.9.9.0.q.q.9.6.5. . . . . .3.6.6. .;. . .;. .) J ",
"J o.e.e.y.e.e.r.y.e.e.e.%.>.;.6. . .6.9.9.9.9.9.9.q.9.9.9.9.9.9.9.9.9.9.q.9.9.9.9.q.8.0.9.6.;.6. . .[  . . . .3.1. . .;. .=.) U ",
"J o.+.>.%.e.e.e.e.e.t.#.+.=.;. .=.;.;.9.q.9.9.9.9.9.9.9.9.9.9.9.9.9.9.9.q.9.9.9.h.9.q.q.7.5.3.2. . . .[  .[  . .3.[  . .;.=.+.) ",
"o.+.} ;.>.%.e.E e.%.e.#.U / +.} >.>.;.9.h.9.,.h.q.9.9.9.9.9.9.9.9.9.9.9.9.9.9.9.j.8.5.9.j.q.9.1. .| |  . .[ [  . . . . . . .=.=.",
"$.;.[ 3.>.%.E J o.o.o.U U J o.O.%.O.>.9.h.9.9.q.9.9.9.9.9.9.9.9.q.9.9.9.9.9.9.q.h.8.9.h.p.$.*.5. . . . .3. . . . . . .;.[ 1.[  .",
">.;.3.| =.%.o.D J J U P P P E o.e.>.p.,.,.q.9.9.9.9.9.q.9.9.9.9.9.9.9.9.9.9.9.h.;.9.j.s.x @ k 8.6.6.;. .;.3. .[  .;.6. .[ [ [ 3.",
"3.;.;.=.=.>.+.) F F H J J ) +.,.p.r.t.p.h.9.5.q.9.9.6.q.9.9.9.9.9.9.9.9.q.q.h.h.7.9.j.>.y l # R ;.{ ! ,.3.1.3.;.6. . . .[  .;.,.",
" .;.} =.=.=.=.} o.U U U #.>.,.,.s.>.%.%.,.8.9.q.q.9.9.9.9.9.9.9.9.9.q.9.9.9.9.9.6.8.j.k...J v 1 y t O ^ 6.3.3.[  . . .[  .;.=.$.",
"[ ;.;.;.*.;.} } o.U U o.p.s.h.h.q.,.>.>.,.,.9.9.9.9.9.9.q.9.9.9.h.h.9.9.q.9.9.7.9.q.8.l.*.@.J < : U M #.;.] -. .[ [ 1.2. .;.+.+.",
"j '  .;.=. . .| %.+.o.+.,.h.h.8.q.8.,.,.;.9.9.9.9.9.9.9.9.9.9.9.,.9.9.9.9.9.9.q.h.,.8.q.( V ^ e C p...$.6.6.6.[  .[  .;.=.+.#.#.",
"9 h '  .;. . .;.=.+.=.=.9.9.9.7.h.q.9.;.;.,.7.7.9.9.9.9.9.9.9.9.9.9.9.9.9.9.q.h.h.8.9.9.} W Q _ &.` _ -.3.3. . . . . .} O.o.U E ",
"r h ' [  . . .6.;.}  . .;.6.6.7.s.9.9.,.;.;.6.7.q.9.9.9.6.9.9.9.q.q.9.9.9.h.h.h.8.9.6.;.6.6.;.,. .<.6.7.[  .=.[ 6. . .;.+.#.#.o.",
"d ~ } [ [  . . .3. .[ ;.[ 6.;.9.9.9.6.;.>.+.>.;.,.9.9.9.9.q.9.9.h.h.9.,.q.9.9.9.8.6. . .] 6. .}  .[ [ ;.[ ;.;.|  .[ 1. .=.%.o./ ",
"H O.*. . .[ [  .[ [ [  .3.3.6.,.9.5.[ } +.o.+.=.;.5.6.5.;.6.6.5.>.:.,.;.;.;.;.9. .6. . .[  .}  .;.3.] 5. .} =.[ 6.2.<.2.,.>.~ F ",
"S E #.>.;.3.1.[  . . . .| [ 6. .3.3.3.} J J U o.+. .;. .[ 6.3. .>.$.%.%.>.;.>.p.=.}  .;.,.%.>.}  . . . . .=.%.%. .1.3.;.=.~ a 8 ",
"H J o.%.>.;.;. . . . . . .;.6. .;.3.6.} / J P J ) }  .[  . . . .%.%.e.t.%.+.%.%./ / / +.%.$.O.=. . .[ 3. .=.+.%.=.;.;.;.%.o.d r ",
"H J U o.O.=.=.} ) } } ;.;.=.=.} ) =.} ) o.J J J ) +.=.;.=.;.;.=.+.#.y.u.%.#.o.#.U J J / #.@.%.%.}  . .3.;.=.%.%.+.+.( $.%.E F a ",
"S J U #.%.#.X./ J / o.+.%.+.+.o./ / o.+.J U U H #.#.%.%.r.t.t.#.o.#.e.y.e.o.E U U J J U E o.#.%.) =.;. .;.>.%.E U U +.%.e.e.U F ",
"S J #.e.t.e.#.E P J U o.o.#.e.E U U U o.J J H H e.e.#.e.e.e.e.#.J o.e.t.e.o.U H J J J H P U E E / ) ) ~ ) o.o.P J J #.%.t.t.#.U ",
"S J #.e.t.t.e.#.U P P U U E e.y.#.o.E J J J J U E #.%.t.t.e.#.U J U o.%.#.U J H J J J J H H U U U U / o.J J H H U E #.e.t.e.#.o.",
"H U #.t.t.t.e.e.U H H U J E e.t.%.#.E U F F J U #.#.%.%.t.e.o.J J U J o.E U J H J J J J J U o.#.#.#.#.E E J H F E #.%.t.t.e.#.#.",
"S U e.t.t.r.e.#.U D F J o.%.t.r.t.#.#.J J F D U #.#.e.e.u.e.#.U J J H J J J H H S H J H J o.#.u.u.e.e.e.E J J J #.#.e.e.u.t.t.e."
};
