/* XPM */
static char *item[] = {
/* columns rows colors chars-per-pixel */
"64 64 256 2 ",
"   c #3D1E2C",
".  c #2A3237",
"X  c #4C1731",
"o  c #512D35",
"O  c #7A383E",
"+  c #6D2D38",
"@  c #611C31",
"#  c #2E483F",
"$  c #59423C",
"%  c #253B47",
"&  c #53324A",
"*  c #7B3547",
"=  c #7A324B",
"-  c #4E1741",
";  c #354F52",
":  c #366F53",
">  c #326F6B",
",  c #27545B",
"<  c #51504A",
"1  c #774651",
"2  c #754F4D",
"3  c #696552",
"4  c #76586D",
"5  c #487768",
"6  c #4A7273",
"7  c #5B6968",
"8  c #8B343D",
"9  c #934A3C",
"0  c #AE563D",
"q  c #BA7436",
"w  c #FA7A35",
"e  c #ED733A",
"r  c #ED5E3E",
"t  c #823746",
"y  c #98374C",
"u  c #8B314E",
"i  c #BA3857",
"p  c #AE384C",
"a  c #BE3B63",
"s  c #8E3E61",
"d  c #C33A57",
"f  c #C33A4A",
"g  c #C83861",
"h  c #85464A",
"j  c #894757",
"k  c #944F51",
"l  c #BC5655",
"z  c #B24F50",
"x  c #8F6553",
"c  c #B36F4E",
"v  c #975B69",
"b  c #AC576B",
"n  c #996A69",
"m  c #B66F6F",
"M  c #C64A4A",
"N  c #C9584A",
"B  c #D5594B",
"V  c #C84759",
"C  c #CB5656",
"Z  c #D45A56",
"A  c #D24A55",
"S  c #EA5B51",
"D  c #CC6647",
"F  c #D56A4C",
"G  c #DD694D",
"H  c #D86349",
"J  c #C96554",
"K  c #D86556",
"L  c #D97752",
"P  c #E7694A",
"I  c #E87846",
"U  c #F97949",
"Y  c #E86956",
"T  c #F86B58",
"R  c #E87858",
"E  c #F67757",
"W  c #F2674B",
"Q  c #C95666",
"!  c #D75865",
"~  c #C85A78",
"^  c #D04E6A",
"/  c #EB5E68",
"(  c #D86865",
")  c #D96977",
"_  c #CB6A6C",
"`  c #E57566",
"'  c #FA7B66",
"]  c #EE6F6E",
"[  c #3B8363",
"{  c #548D77",
"}  c #538E71",
"|  c #6F8E72",
" . c #7A874F",
".. c #60D771",
"X. c #FA8938",
"o. c #FD933C",
"O. c #FD9B3B",
"+. c #F79938",
"@. c #F48E31",
"#. c #FCA53B",
"$. c #F3B23B",
"%. c #DB893F",
"&. c #FBD733",
"*. c #FCE43D",
"=. c #899670",
"-. c #B29370",
";. c #B7A475",
":. c #97B079",
">. c #DA8656",
",. c #CC9055",
"<. c #FC8B43",
"1. c #F9894A",
"2. c #FD9846",
"3. c #EA8459",
"4. c #FA8958",
"5. c #FD9659",
"6. c #EC9051",
"7. c #DEA85A",
"8. c #FBA442",
"9. c #FEA34C",
"0. c #F8A848",
"q. c #FDAB5B",
"w. c #F9A755",
"e. c #FBB759",
"r. c #F9B950",
"t. c #D99A69",
"y. c #D18E72",
"u. c #E88765",
"i. c #F78867",
"p. c #E89969",
"a. c #FD9565",
"s. c #FD9C64",
"d. c #FE956C",
"f. c #FE9B6C",
"g. c #F49867",
"h. c #EA8D76",
"j. c #F58A77",
"k. c #E79B78",
"l. c #FE9572",
"z. c #FE9B73",
"x. c #FD9C7B",
"c. c #F79778",
"v. c #D9A66C",
"b. c #D9A876",
"n. c #CDAA6F",
"m. c #E8A769",
"M. c #FCA364",
"N. c #FDA36C",
"B. c #FAA969",
"V. c #E9B969",
"C. c #FEB565",
"Z. c #FCBD65",
"A. c #FDB56C",
"S. c #FDBD6C",
"D. c #F5BB69",
"F. c #EAAA78",
"G. c #F5A373",
"H. c #FCA374",
"J. c #FDAB75",
"K. c #F4A47C",
"L. c #FDA47C",
"P. c #FDAB7C",
"I. c #F5AC77",
"U. c #E9B876",
"Y. c #FDB473",
"T. c #F5BC72",
"R. c #FEBC73",
"E. c #FDB47B",
"W. c #FDBC7B",
"Q. c #F4B779",
"!. c #86EB75",
"~. c #FEC847",
"^. c #FCD844",
"/. c #FAC559",
"(. c #F8D254",
"). c #FDC264",
"_. c #FDC26C",
"`. c #F8C668",
"'. c #FDC374",
"]. c #FDC975",
"[. c #F5C37B",
"{. c #FEC47C",
"}. c #FECA7C",
"|. c #F4C676",
" X c #FCD479",
".X c #EBC570",
"XX c #545A83",
"oX c #71738F",
"OX c #6F76A0",
"+X c #8D7688",
"@X c #B57682",
"#X c #CE7183",
"$X c #E97581",
"%X c #C85B85",
"&X c #7B8197",
"*X c #4EB688",
"=X c #6AB58D",
"-X c #6B9D9E",
";X c #5AC398",
":X c #6EC994",
">X c #7DE68F",
",X c #7CCEA4",
"<X c #848299",
"1X c #8D949C",
"2X c #B0928E",
"3X c #B5AF94",
"4X c #9090AC",
"5X c #A898A8",
"6X c #9EA3B6",
"7X c #B1B2B1",
"8X c #8EB08A",
"9X c #D3968A",
"0X c #EB9987",
"qX c #FA9B86",
"wX c #F0948E",
"eX c #D7AF89",
"rX c #E7A884",
"tX c #FDA583",
"yX c #F5AB83",
"uX c #FDAA83",
"iX c #FDA58A",
"pX c #FEAB8B",
"aX c #F3A588",
"sX c #E6B986",
"dX c #FEB382",
"fX c #FEBD82",
"gX c #F8B887",
"hX c #FAA693",
"jX c #F8B995",
"kX c #E7A792",
"lX c #F5B7A3",
"zX c #E3B3A5",
"xX c #83CA92",
"cX c #89F599",
"vX c #95E992",
"bX c #F5C483",
"nX c #FEC482",
"mX c #FECA83",
"MX c #FCC58B",
"NX c #FDC98C",
"BX c #F5C987",
"VX c #FECA92",
"CX c #FAC898",
"ZX c #F0CC91",
"AX c #C9C6B9",
"SX c #D1D9B3",
"DX c #FBCAA2",
"FX c #FAD0A8",
"GX c #EFEEB5",
"HX c #FCE792",
"JX c #BAB3C7",
"KX c #9C94C5",
"LX c #C5BBC4",
"PX c #D5D3C6",
"IX c #F0F0C4",
"UX c #E2E7C3",
/* pixels */
"<.2.a.d.f.z.z.L.uXuXuXiXyXuXL.g.z.H.P.P.R.W.'.'.nXnX'._.R.{.'.nXnXW.[.|.'.J.tXL.uXP.P.P.P.E.W.).Y.B.G.L.tXtXtXL.l.z.d.s.d.5.<.X.",
"5.5.f.z.z.f.z.x.P.uXuXuXtXuXP.H.J.Y.E.W.W.{.{.{.nXnX]._.{.mX'.nXmXnXbX}.}.{.pXQ.yXP.Y.S.S.R._.).S.Z.A.E.R.Y.N.N.z.f.N.f.f.s.5.<.",
"f.z.x.z.z.f.z.z.L.tXtXtXtXuXuXdXW.{.nX}.}.{.{.{.}.].'._.W.'.'.'.D.BXMXbX`.{.bXfXE.R.S.)._.'._.S.R.S.Y.Y.A.B.N.s.f.d.f.z.z.z.a.5.",
"x.L.L.H.f.f.N.H.uXuXtXtXuXuXuXgX'.[.[.{.{.{.{.{.].'.'._.{.}.{.}.S.Q.c.F.'.'.[.'.W.W.'.|.].}.R._.E.J.H.f.f.N.z.z.d.s.s.f.z.l.s.a.",
"z.L.P.J.N.N.B.Y.dXE.dXdXdXW.fXnXmXnX}.{.{.{.{.}.{.fXW._.nXnX{.W._.m.K p.].S.R.].{.{.{.'.{.{.W.R.P.H.z.d.a.d.d.d.f.d.f.f.f.s.d.s.",
"P.E.E.E.J.Y.R.W.'.{.{.{.{.{.'.[.nXW.{.W.W.{.nXnXnXnX_._.'._.`.].`.B.P t..XY.W.}.nX}.'.'.'.W.E.I.H.z.z.f.d.s.f.d.z.l.z.f.d.d.a.s.",
"W.W.W.Y.E.W.{.].{.'.].}.{.].].'.W.{.{.mXmXnXBXZX[.nX_.`.`.`.`.|.{.T.Y 3.m.gXyX.X}.W.{.W.Y.E.J.G.z.d.f.z.f.f.x.x.H.H.z.f.f.s.s.d.",
"'.'._.Y.E.W.nX'.}.nXnXmXnXnXnXW.}.}.[.[.V.n.n.n.U.bX{.'.U.b.n.b.W.m.' ' m.rXk.gX}.{.gXdXtXP.P.z.J.g.d.d.d.f.H.yXP.L.H.z.f.f.z.z.",
"{.W.R._.{.}.{.{.nX}.{.}.{.{.{.nX'.|.mX[.5 > 5 > =.U.ZX7.3X;X=X5 dXF.p.i.Y R r k.}.[.}.W.{.}.{.nXnXJ.x.f.f.f.x.tXuXyXA.C.H.l.J.P.",
"{.'.'.R.{.{.{.}.{.{.}.{.{.{.}.W.mXNX}.{.XX> : > ; -.8X{ xXvXvX=XbXB.4.i.Y ' T t.nX{.{.}.{.}.{.].fXE.L.x.z.f.H.tXJ.E.D.S.P.L.J.gX",
"{.W.{.{.W.{.{.nX{.{.{.{.{.{.{.W.MXQ.].V.: > > ; ; & { *X:XcX!.,XV.C.i.qXR ' i.g.nX}.{.{.'.{.'.'.W.W.dXP.N.N.H.J.Y.E.)._.E.P.{.bX",
"}.{.{.{.nXnX{.{.{.{.nX{.'.{.{._.).{.`.'.; ; > 5 { : -X=X;X,X*X| ZXgXu.d.3.p.6.x.mX[.'.W.R.'.'.R.{.{.fXW.Y.A.R.Y.R.W.S.R.E.I.{.mX",
"{.{.|.}.{.{.{.'.'.nXnX{.'.{.'.).'.C..X'.< ; % :XvX:X=X8X8X| 5 3 sXgXN.5.E W.G.k.mX}.}.W.S.'.'.'.'.].}.W.R._._.S.Z.W.S.S.P.P.W.W.",
"].{.{.}.nXnX{.{.'.nX{._._.W.{.Z.A.'.].sX2 t < >XcX*X4 ~ ) %.1 3 eXdXg.h.p.F.L.F.mXnX].{.'.'.{.{.'.'.'._.S.S.Z.Z./.).S.E.yXuXuXuX",
"{.{.W.W.E.W.W.W._.nX{._.).W.W.Z.).VXn.o t 6.X.=X} > x $X@Xe.e h < eXU.v.b.eXrXNXmXnX{.'.{.}.{.nX{.'.)._.)._.S.Z.Z.S.Y.E.uXuXpXuX",
"'.W.W.E.P.P.E.E.S.{.{.).).W.{.Z.`.m.&   I 1.@.2.3.x v Y 0.*.&.c - 3 t.F.eXsXU.VXBXnX[.{.'.}.{.nX{.W.S.S.S.S.S.S.W.W.P.P.P.P.uXP.",
"E.Y.R.A.H.uXP.P.fXfX{.{.{.{.'.T.].v.1 l +.8.8.q.9.F.I.e.~.*.^.o.0 j v.mX[.{.[.W.{.nXmXW.'.[.[.NX;. .=.9Xr.mXn.=.!.:.8X=.rXpXiXx.",
"J.J.W.Y.P.iXtXpXE.W.{.{.'.{.'.R.].v.v @.$.#.r.)./. X X(.*.&.^.2.>.n b.}.}.{.}.nX{.{.{.}.}.nX{.{.| 5 > :.n.r.-.} ;X:XxX[ qXaXx.c.",
"B.B.R.Y.P.uXuXP.I.W.nX}.{.nX}.{.`.v.z X.8.8.e.(./.(./.~.*.^.(.#.w x b.].{.nX].mX{.{.'.}.}.nXmX{.3 , 5 > , % % { cX>X>X} h.uX5.5.",
"z.H.P.uXiXpXiXuXE.fXnX].{.}.{.{.}.b.x Y 2.B.e././.D.)././.e.q.#.P k b.mX{.{.{.{.nX].].{.W.{.'._.3 % , : =X5 ; ,X,X&X[ ;.F.c.c.g.",
"z.L.P.P.tXtXP.P.dXfXW.{.{.nX}.[.nXb.h C 1.2.0.r.e.B.e.e.C.9.<.4._ j F.NX|.{.nX{.mXnX{.'.'.'.D._.-.| } :XxX-X; n ,.;.-.T.H.z.i.i.",
"H.tXL.P.L.P.P.L.uXE.E.R.W.{.}.[.}.k.j Q ` X.2.2.e.C.e.r.q.O.@.Y b u m.MX|.].nX{.nX{.{.'._._.`.'.u.| ..vXxX: < J w d.D.|.d.g.d.d.",
"uXpXyXyXuXuXpXiXtXP.Y.Y.'.'.{.{.}.b.j Q / U 1.+.5.q.q.w.5.1.1.) ~ t b.VX'.{.[.{.{.nX{.{.S.`.[.v.v 6 =XvX| ; x <.E U w.e.f.z.g.a.",
"S.S.D.S.S.S.E.Y.tXL.Y.S.R.R._.'.[.t.9 / U U 1.+.+.+.#.O.<.U T E S h b.nX'.].nXmX'.nXW.}.`.].gX9 $ 3 > } > 3 +.#.~.R ~ K.tXJ.x.c.",
"S.Z.S.'.S.Z.Z.Y.Y.Y.S.S.'.R.S.S.`.t.s ~ <.9.#.0.8.8.#.8.8.#.0.1.~ u U.}.{.mX].nX{.{.{.{.nXW.W.k D r.r.HXHX X(.^.&.X.%XG.E.tXl.qX",
"'.S.Z.S._._.S.R.T.R.S.S.S.S.S.S.].7.+ * o.2.#.#.O.0.8.2.w.#.#.e * O b.}.Q.}.mX{.{.{.{.{.{.S.R.m ` 9.w.HXGX X#.9.u.I ~ G.W.yXH.l.",
"T.R.'.'.R.Z.Z.R.W._.).S.S.S.S.).).D.x o e +.#.8.#.0.#.+.0.#.o.F o x bX[.{.{.{.[.nX{.{.{.[.`.Z.) I w.C.J. Xr.+.o._ / m F.Q.E.iXx.",
"J.E.fXnX'.D.S.R._.S.).S.).S.'.[.E.'.b.o Z 4.@.2.9.8.O.O.#.@.U J & 9XNXbXmX{.{.mXnX{.}.{.'.`.A.b B i.2.#.O.o.1.R ! ~ b F.fXW.z.z.",
"z.L.uXfXmX].{.{.{._._.S.'.'.R.'.gX].n.& b T T X.<.<.X.X.1.X.U N & eXMXbX{.{.MX{.}.{.{.nX{.T.T.v J W U o.X.T E %XK F j b.E.pX5.d.",
"d.x.L.E.nXnX[.mX'.W.S.'.{.}.{.{.].mXrX4 t S T 1.<.<.o.<.4.T B 1 h rXVXmX].[.}.{.{.}.{.'.nXnXbX2 N X.<.O.X.X.@.1.5.L 2 F.P.c.a.i.",
"a.z.L.E.W.{.{.}.{.W._.{.{.}.{.}.}.VXNXeX@Xm / u.s.5.X.X.U / ) @Xy.DXDX}.}.W.W.}.{.nX}._.nXMXbXx s D X.1.1.1.<.o.1.y 1 b.Y.g.s.M.",
"s.H.G.B.{.nXnX{.{.'.'.'.{.W.{.'.BXCXDXFXlXkX) wXjXaX4.4.i.) 9XkXDXCXFX}.'.nX}.{.{.fX{.].bXMXBXrXn z ) k.q.E T ( D k 2XCXa.L.x.M.",
"K.L.z.J.'.'.BXgXmX{.fXnX_.'.W.'.nXVXDXDXDXlX9XkXjXDX0X0X0XkXjXlXFXCXVXnX{.{.{.{.fX{.{.{.}.nXMXCX-.l Q 0XdX4.R #Xv m sXNXK.x.dXG.",
"R.dXL.W.BXnXW.MX`.}.mX}.{.S.'.|.}.bXCXCXDXDXkXlXCXCXgXgXjXlXDXDXCXCXNXnX{.{.}.{.}.{.{.{.{.nXBXNXZXn l Q.ZXC.2.9Xk kXVXQ.uXuXA.{.",
"C.E.tXdX5.R 3.T.[.nX[.S.W.S.).{.}.{.NXNXNXNXMXCXZXVXbXMXNXZXCXZXVXNXmXnX{.{.}.{.{.{.{.{.{.{.{.nX|.gXW.|.mX_.'.CX[.NX].T.P.E.T.`.",
"'.E.yXdXg.l.G.>.mXbXW.}.}.].Z.W.'.{.mXmX}.mXNXnXnXmXmXmXmXnXnX}.mXnXmXfXfX{.}.{.{.}.{.{.{.{.{.'.{.Z.S.{.'.].].{.'.'._.'.J.H.S.'.",
"I.G.H.uXi.g.[.g.S W W u.W.`.Z.S.S.{.W.}.nX{.}.}.nXnXW.nX{.{.{.W.{.{.nXW.nXnX{.{.{.{.{.{.{.'._._.S._._.S.Q.}.].W.mX}.`.C.H.L.E.E.",
"iXJ.G.tX4.p.mXx./ W L ` E._.'.S.A.'.W.W.}.W.W.'.[.}.W.}.}.[.{.{.'.{.}.nX{.{.}.{.{.{.{.{.{.'.S.D.T.S.`.|.W.[.[.{.{.T.T._.N.l.P.iX",
"K.P.E S P I f.x.K 4.i.h.uXR.Z.'.S.S.'.{.nX}.}.}.nX{.}.}.}.}.}.{.{.}.}.{.{.{.{.{.}.{.}.{.'.R.S.S.'.'.`.`.W.'.|.{.'.{.'.S.H.z.P.tX",
"x.P.` ' i.W P i.L.z.i.` pXD.).W.'.S.'.{.nXbX{.'.}.}.nX{.{.{.{.{.{.}.{.}.{.}.}.W.fX{.}.{.'.S.S.S.T.C.)._.Z._.}._.).D._.S.N.N.J.L.",
"x.iXR E tXiXR W tXL.4.g.pXpXE.W.).D.'.}.W.nXNX'.NXnX].BX}.W.W. XW.'.[.nXnX{.{.'.}.nXMXnX{.{.V.{.E.`.`._.S.e.`.R.S._.'.R.M.s.f.x.",
"d.pXqXi.c.uXl.l.6.+.6.L.jXW.D.S.S.W.W.|.|.mX|.].R.}.'.fXbX XBXW.BX}.].'.{.nXnX{._.|.[.S.'.Q.u.F.R.T.`.T.'._.`.S.S._.).R.f.d.f.s.",
"q.G.iXx.J.I.tXtXtXH.H.pXuXC.Z._.C.S.{.'.{.MXnX{.bXmX_.].[._.}.nXbXmX{.{.}.[.mXmX'.NXnX].{.m.>.R F.{.{.Y.T.S.C.S.S.S.D.E.G.z.a.5.",
"a.g.iXL.R.I.uXc.qXqXaXG.f.N.H.P.E.I.gXmX'.{.mX}.[.mX'.R.MX{.fX].fX}._.'.nXW.nXmX[.MXW.{.fXm.h.' u.g.3.3.F.'.S.Z.R.).).'.Y.J.s.5.",
"z.J.E.A.S.E.tXz.5.H.L.z.s.z.x.L.P.dXgXnX].{.|._.nX{.{.R.n x 1 j W.nXNXNX[.T.'.}.].W.nX}.nXK.u.i.Y R R R g.|.S.S.S.S.Z.).S.A.s.a.",
"iXE.S.S.Y.E.L.g.M.H.x.d.l.d.a.H.s.H.P.R.S.{.nXbX.XNXNXU.u O X o n.U.Q.nX].}.}.R.'.].}.D.].m.g.M.' u.L.u.J.T.`.R._._.S.S.Z.R.z.x.",
"iXY.e.R.dXY.A.N.N.g.z.f.z.L.H.P.dXuXdXE.|.BXgXMX].R. XU.k P l X X h m.nXW.gX[.}.MXnX}._.}.E.I.p.k.t.E.p.E.{.`.R.`.S.Z.S.Y.I.c.x.",
"yXD._.E.tXE.`.S.R.g.l.s.N.P.dX{.fXP.tXH.MXk.z p a i * * u e R C y + = = * t * = t t F.[.S.Y.U.m.b.U.U.U.W.R._.D.S._.Z.R.P.tXx.L.",
"P.R.S.S.Y.Y.B.E.C.N.z.L.uXW.}.nX[.E.E.aXJ.m y M D A y u p K J A p p y z 9 z p y y h m c L L r.W.).{.V._.).D.{.S.`.Z.R.C.tXyXx.z.",
"N.M.q.A.W.E.Y.R.A.H.H.J.fXW.'.fXnXW.W.W._ + y N R j.N V d f ! A V Z J K H Y J M A 8 y j * 1 x C.W.`.).A.).).D.W.T.S.A.U.I.K.wXc.",
"X.@.+.w.A.R.S.S.R.E.P.E.{.[.].}.MX}.].m.+ t ~ D P i.` i i H 4.E R G H F R R R 3.E 3.F V i =   V.).D.C.S.W.D.D./.e.e.R.yXa.i.a.g.",
"X.X.2.w.Z.).S.)._.Y.R.S.'.'._.{.nX'.'.k.t l N B M F B.Y N L ` u.E H N C K H Y R R E I K C z X O T._.'.).S.[.).Z.W.W.2X<Xn 2Xg.U ",
"X.4.l.B.S.'.R.S.S.R.S.).S._.'.{.].mX_.y.j B I ` / N M.i.B R ` R L B C N B H I 3.i.d.3.L D N u - m.).D.V.).T.'.C.n.-.5X5X4XoX@.X.",
"<.a.x.J.S._.T.).)._.Z.).'.S._.W.'.Q._.b.t K 3.E G D e.H.Y I 4.U ` B C C C K ' R f.5.3.U K A z X m.'.S.'.fXY.{.rX+XOX7XAX4XXXq <.",
"M.a.N.N.E._.Z.).S.S.).).S.S.S.R.Z._.D.t.+ R J K L J &.$.G R ` U Z M d d V i f i M B G ! V B M - k.)._.e.J.L.V.+X-XLXAXAXJXoX7 W ",
"tXa.5.H.uXR.D.S.).R._._.'.S.).S.S.D.W.,.+ U Z M d ^ e.r.F F u.3.D K Z M K N B H l C C B M V i 8 m.).Q.'.A.aX2XoXLXIXIXGXPX+X6 u.",
"M.f.c.L.P.Y.A.S.A.A.S.R.R.R.E.A.Y.q.W.,.o 3.N d i G r.w.F K Y P Z B B Z N D F K A V ^ V V d i u k.S.W.R.yXhX+X1XPXIXIXUXPX4X7 y.",
"a.d.s.z.L.tXtXg.L.z.H.L.tXtXtXuXJ.s.qX` @ Y ` V M 3.9.3.P J N i a d i V A Z Z C M p f d g g d y 0X).S.R.R.9X+XPXGXSXFXGXJX5XOXOX",
"<.5.f.L.tXuXpXtXL.z.z.z.x.L.x.tX0XM.K.y.& u l 3.qXN.u.J B H G ` wXM d i i d d z ] V f d d d V p wXM.a.iXrX+X6 SXIXIXIXLX-X4X4X&X",
"X.<.f.x.uXtXL.L.L.z.s.s.s.c.z.L.H.g.qX9Xb 8 z P R >.h.h.Z B N H j.) d i d d d ] wX^ i i ( ( ` $XwXz.l.2XoXXXoXSXIXIXUXJX6X4X4XOX",
"T R d.H.pXpXiXuXL.z.s.d.z.x.L.uXiXx.f.c.` b V M J h.iXhXl ) ( ( H.j._ Q ! Q ( c.qX( C _ iXiXiXhXpXaX-.<XoXOX1XAXUXUXJX6X4X4X2X2X",
"Y ' L.H.uXuXP.H.qXx.H.z.L.P.pXuXiXtXL.K.dXy.V V K hXaXqX( L.I.pXqXwXx.z.i.H.qXqXN.z.qXqX0XkXhXhXH.kX+XOX6XJXKX5XJX7X6X5X4X4X0Xh.",
"e E z.z.L.P.P.J.P.H.G.H.P.uXP.yXuXtXiXiXaXqX' Y g.fXyXuXqXE.T.I.P 4.a.s.s.g.z.qXa.g.H.pXhXhXiXF.dX9X4X4XPXPX6X6XJX7X7XzXaXqXu.3.",
"Y Y 5.g.uXpXiXqXx.z.z.tXuXtXtXuXyXtXI.L.iXtXu.I g.mX[.gXT.yXdXM.Y S ' j.x.H.5.d.z.x.tXL.c.j.i.pXgXtX9XrXsXCX2Xm 3XlXZXZX0XwXc c "
};
