/* XPM */
static char *player[] = {
/* columns rows colors chars-per-pixel */
"64 64 256 2 ",
"   c #2A0348",
".  c #290756",
"X  c #360657",
"o  c #381859",
"O  c #30144E",
"+  c #381766",
"@  c #380D6F",
"#  c #3D256B",
"$  c #13064B",
"%  c #461B5A",
"&  c #461B46",
"*  c #52285A",
"=  c #593556",
"-  c #4B2850",
";  c #66365C",
":  c #491869",
">  c #562965",
",  c #593779",
"<  c #512F68",
"1  c #70376C",
"2  c #76475A",
"3  c #6B4754",
"4  c #5D4779",
"5  c #764767",
"6  c #7A5369",
"7  c #694578",
"8  c #764777",
"9  c #735579",
"0  c #726871",
"q  c #FF7D11",
"w  c #913D7B",
"e  c #84555E",
"r  c #AD7759",
"t  c #8C5879",
"y  c #8B516C",
"u  c #AF5575",
"i  c #94676E",
"p  c #B6747A",
"a  c #A9736F",
"s  c #8B655C",
"d  c #EC5B4B",
"f  c #E9674C",
"g  c #E97859",
"h  c #F77C5A",
"j  c #EC6E51",
"k  c #C87577",
"l  c #F17865",
"z  c #DA674F",
"x  c #76AF60",
"c  c #FB862B",
"v  c #F78E35",
"b  c #FF8A1B",
"n  c #B7866C",
"m  c #F99748",
"M  c #F6865A",
"N  c #FC9857",
"B  c #EF8850",
"V  c #FCA65B",
"C  c #FBBC5D",
"Z  c #F4AC50",
"A  c #CB9976",
"S  c #D4906F",
"D  c #E88765",
"F  c #F78867",
"G  c #EA9568",
"H  c #FC9B66",
"J  c #FD956C",
"K  c #FD9B6C",
"L  c #F49768",
"P  c #E89878",
"I  c #FC9672",
"U  c #FD9C73",
"Y  c #FD9C7A",
"T  c #F69977",
"R  c #EA8673",
"E  c #D8AB6E",
"W  c #FDA26D",
"Q  c #FDAB6C",
"!  c #F8A768",
"~  c #EDB76C",
"^  c #FDBC65",
"/  c #FDB46C",
"(  c #F5BD6B",
")  c #FEBC6B",
"_  c #F8B766",
"`  c #EAA878",
"'  c #FDA374",
"]  c #FDAC74",
"[  c #FDA47C",
"{  c #FDAB7C",
"}  c #F4A977",
"|  c #ECB475",
" . c #E9B978",
".. c #FEB474",
"X. c #F4BB73",
"o. c #FEBC73",
"O. c #FDB37B",
"+. c #FDBC7C",
"@. c #F4B778",
"#. c #E8A769",
"$. c #D69E5D",
"%. c #FDC25C",
"&. c #F9D15A",
"*. c #F6D04D",
"=. c #F9EA5B",
"-. c #FEC265",
";. c #FDC26C",
":. c #F9C76A",
">. c #EEC975",
",. c #F5C472",
"<. c #FDC374",
"1. c #FDCB74",
"2. c #F4C47A",
"3. c #FDC47B",
"4. c #FDCA7B",
"5. c #F5CA76",
"6. c #FCD777",
"7. c #F7D166",
"8. c #FDEE6E",
"9. c #D6C365",
"0. c #3C1A8B",
"q. c #3D2ABA",
"w. c #44198B",
"e. c #4E2E88",
"r. c #5233B8",
"t. c #461FAC",
"y. c #72538A",
"u. c #7A698F",
"i. c #6750B0",
"p. c #5749B8",
"a. c #5639C8",
"s. c #4D2ECD",
"d. c #522CE3",
"f. c #613BC2",
"g. c #5D44D2",
"h. c #6D53D8",
"j. c #5C58F9",
"k. c #5848EF",
"l. c #6755E8",
"z. c #685BF9",
"x. c #6D51F0",
"c. c #6965FA",
"v. c #7468F8",
"b. c #7B77F5",
"n. c #706EED",
"m. c #636CD9",
"M. c #99518B",
"N. c #B25C8B",
"B. c #916F91",
"V. c #AD718E",
"C. c #8A5DAB",
"Z. c #AA7DA2",
"A. c #8E71A2",
"S. c #C86988",
"D. c #C7768B",
"F. c #D6788B",
"G. c #CA7996",
"H. c #D27C97",
"J. c #CE6B92",
"K. c #E37696",
"L. c #C872A5",
"P. c #CA5C89",
"I. c #906ECC",
"U. c #A478C5",
"Y. c #8777F0",
"T. c #8856D1",
"R. c #7C83F8",
"E. c #25C1C0",
"W. c #21A1BA",
"Q. c #B48B97",
"!. c #B091AD",
"~. c #B9A5B8",
"^. c #9B8FA7",
"/. c #CF8F91",
"(. c #E89D8A",
"). c #FB9D85",
"_. c #EB9692",
"`. c #CCA989",
"'. c #E8A684",
"]. c #FDA583",
"[. c #FDAA83",
"{. c #FDA58A",
"}. c #FEAB8C",
"|. c #F5A787",
" X c #F3B383",
".X c #FDB383",
"XX c #FDBC83",
"oX c #FAB989",
"OX c #FBAC93",
"+X c #FAA797",
"@X c #FCB797",
"#X c #EBB28E",
"$X c #D191AB",
"%X c #D0ADB1",
"&X c #E7A6A9",
"*X c #F9A9A6",
"=X c #FBB8A6",
"-X c #FBB6BA",
";X c #EFAEB4",
":X c #E496A9",
">X c #F6C483",
",X c #FDC382",
"<X c #FECA83",
"1X c #FFC38A",
"2X c #FACA89",
"3X c #FDD684",
"4X c #FBC495",
"5X c #F2D48B",
"6X c #FCC5AA",
"7X c #F9C8B9",
"8X c #FAD5BA",
"9X c #ECC5B7",
"0X c #F1F0BC",
"qX c #ECD884",
"wX c #B193CC",
"eX c #B3ACC9",
"rX c #8988F9",
"tX c #988CFD",
"yX c #9897F9",
"uX c #9391EB",
"iX c #A28EFF",
"pX c #A693F2",
"aX c #97A0FA",
"sX c #B7AEF5",
"dX c #D7BBC9",
"fX c #EFB4C9",
"gX c #DDA8D8",
"hX c #BCC5C2",
"jX c #D6CADB",
"kX c #FACAC6",
"lX c #FEDCCE",
"zX c #F9D6C8",
"xX c #FAD8D6",
"cX c #EACFCB",
"vX c #FCE3C9",
"bX c #FBFBCD",
"nX c #FCE6D5",
"mX c #FDE5DC",
"MX c #FDECDC",
"NX c #F8EBD7",
"BX c #FDF3DC",
"VX c #FDFDDB",
"CX c #F8FAD6",
"ZX c #ECF0D5",
"AX c #CDC9F8",
"SX c #F9DBE3",
"DX c #EBD3E5",
"FX c #FEEDE3",
"GX c #FEECEB",
"HX c #F9E5E5",
"JX c #FBF6E7",
"KX c #FFF5FB",
"LX c #FDFCFC",
"PX c #FAF9F7",
"IX c #F1ECF5",
"UX c #D9E9D3",
/* pixels */
"v N J K H K T ' {.[.{ { { [.[ ' Y W ! } ] o.<.<.3.<.|.V.2 8 n :.4.2XX.1X3.;.( @.' {.[ [.|.] / / ^ ^ ) ! ' { { } { ' U U K J K K ",
"H J J H H W ' ' {.[.[.{ [.{.[.[ ]...+.1X2X3.3.3.3.,X_.t < % n X.( 3.3.3.3.3.4.oXO.|./ / o.) o.) <.o.+.../ ) ..O.' ' U U K K K K ",
"K U Y U J I J U {.[ ].{.{.|.[.[.XX,X3.3.+.<.,.3.<.4.k :X%X# . t 3X<.;.C ) <.( 1X3. X..) ) ) 3.+.) ) ) / Q Q ! Q W K K K J H K K ",
"W U { [ Y [ K ' { { [.[.[.{ .XO.3.,X3.4.2X3.<.3.1X|.F.*X;Xy.% 6 6._ ( ~ S S | @.,.XXXX3.<.3.1X1.:.^ ^ ] [ U L H K K K J H K H K ",
"{.[ ] Q W Q Q ..o...O..XXX+.+.3.,X<X<.<.,X1.4.1X)./.N.:XnXxX0 6 2X_ 7.n . + u `.3.4.4.,.<.<.,._ ) ..[.Y U K H K K K U K K K K K ",
"} { / ..{ O.) 3.<.3.,X,X3.3.<.3.<.3.,.3.1X3.3.` F.V.:XzXbXJXy.e 6.%.1.r # !.K.D.E X.<.3.3.XX3.o.[.[ ' U J K K J H U U U U K K K ",
"<.o._ +.OX X3.+.3.3.3.3.3.3.3.3.4.1X,.3.,X3.4.'.k S.;XbXCXJX0 y 4.| 1.k < 9XJ.P.F.oX,X3.XX X{ { }.} W H K U U U K [ [ U ' U K U ",
"+.,X( ( (.G o.1X,.4.,X3.3.3.3.3.,.,X3.4.XX3.4.` H._.kXCXbXVXu.2 -.C &.p , UXFX%XF.+.5.+.XX.X] { ] W K K K K H K U [ {.[ ' K J U ",
"2.+...| l l S @X2X>X2X+.1X3.,.3.<X-.3.1X<.+.2X/.V.=X8X0XJXJX0 3 6.~ &.n 4 lXCXcXk ).4.>X+.,X3.3.:.3.+.{ ' U J K ].].{ [.O./ ' T ",
"<Xo.o.2.D g D } oX` #. X2X2.5.,X3.1X3.3.3.) 6.r > xXVXbXVXZXB.e 1.( -.T Z.NXbXcXP.J. .<X3.<.1X3.4.3.,X[.[ Y U K T [ { .X..^ ] [ ",
"5.3.XX@.D F L l l g D  X,X3.,X<.,.1X3.3.4Xo.`.t , zXbXZXCXbXu.1 A P ` S $XnXCX0XQ.D. X<.3.,X<.3.3.,X,XXX[.{ ' ' W { o.O.) ) O.[.",
"3.+.2XXXG U L j l J l ` ,X3.,X<.<.) 3.,.4.1Xi X , xXVXbXVXbXu.. - N.L.P./.cXCXCX8XL.@.1.+.;.3.-.<.<.3.2.+.o.../ / +.) ) ) ^ O.[.",
"<.,X1X>X#.L G D '.O.G  X<X<.3.5.o.^ 4.-.:.,.8 1 '.=X7XJXJXCX`.u (.7X7X;X+XzXCXcXK.J.#X:.3.3.) o.) ;.<.<.3.;.;.) ) o.) ^ ^ ) O.[.",
"3.4.>X>X>X} ` }  .| ` 1X4.o.3.( ;./ ..<.<X,X2 y @X+X6XNXVXbX$XH.9XMXMX7X=XvXCXzXS.J. .<X3.,.3.;.3.3.3.<.<.<.<.) -.o.^ -.) ) [.{ ",
"3.4.o.2.1XoX>X+.;.+.3.+.o.o.<.o.^ 3.3.<.oX1X6 t OX#XoX=X=X4XkXkXxXHXGXxX@XxXkXV.= ` 5.+.3.2X,.3.,X3.3.<.o.<.) ) ) o.) ) ) ..[.[.",
"o.3.) O.[.[.@...;.5.4.( o.,.:.o.o.) 3.:.>X3.5 e @X+XOX|.{.*X6XNXnXJXJXzX+XzX4Xp >  X3.>X3.3.3.3.4.3.3.o.-.) -.) ^ o.) ) ..{ |.[.",
"oX+.) ] { ].{ ] O.+.3.3.3.3.3.;.3.-.3.3.4.>X2 y @X+X].=XkXzXlXxXlXlXHXxXlXlXvXQ.> ,.1.XXXX7.,X<.,X3.<.) ^ ) ) ) ) ) ^ ) ] { ].{.",
"O.o.....{ {.{.[..X+.3.4.3.3.3.<.<.4.3.X.,X#X1 t @XOX@XxXKXnXnXnXNXnXGXMXlXzXBX~.% a '.|.5.>X+.,X3.3.<.<.) ^ -.) ) ) ) ) / { [ ].",
"W ..o...{ |.[.[.{ +.3.3.3.,X3.,.+. .3.6. Xk % y @X@X7XxXGXJXBXJXJXMXGXFXvXlXMX!.  X B.S 6.2.4.3.3.3.<.) ^ ) ) ) ) ) ) ) o.O.{ [ ",
"H Q / ..{ ].].{ O.+.3.3.3.+.3.3.1.3.3.` :XfXeXQ.}.[.zXGXFXJXHXFXJXGXFXFXxXMXMXdXu ^.%X$Xa  X1.,.3.<.<.) ) ) ^ ) ) ) ) ) ) o.] ' ",
"I ' { { [.[.[.[ { XX3.3.3.3.3.4.2X<.6.A H.KXPXkX).OXxXMXNXGXGXJXJXKXNXFXKXFXNXlX@XFXVX~.; { ) ,.<.o.o.) ^ ) ) ) ) ) ) ) ) / Q K ",
").].[.].{.{.[.{.[.O.XX+.3.<.<.3.<.;.5Xa C.PXlX@X+X=XkXnXJXKXIXJXJXGXNXJXLXGXBX7X+X&XJXeX- ( <.o.<.o.;.) ^ ) ^ ) ) ) ) ) ^ ) Q H ",
"[ ].[.].[.[.[.[.].[..Xo.o.o.<.3.XX<.5.i e.DX=XOX+X+X6XxXDXGXHXNXBXGXJXFXzXnXjX%X+XOX8X!.1 ~ ;.) ) o.;.) ) ) ) ^ ^ ) / ) ^ ) Q I ",
"O.....O.{ { O.{ |.[.{ ..) <.3.3.>.) 3Xa > /.(.}.+X+X@XQ.9 xXMXFXMXNXxXxX6X=X8 i ..J., 9 ` ,.( <.o.;.) ) ) -.^ ) ^ o.o.) ^ ) Q T ",
") ) ^ ) / o.....{ ......o.<.) o.-.XX6.k M.%XcX=X{.}.@Xi % =X%XZ.^.xXPXdXi |.* 1 =X&Xw u 3X5.1.<.<.<.;.^ ^ C ^ o./ o.-.o.o.^ ] ].",
"^ ) ^ ^ ) o.) ..O.../ ) ;.;.) -.<.O.1./.$XPXKXxXOX'.oXN., +Xy X 7 LXLXeX& +X> 1 6XGXZ.k 3X,X+.;.) <.) ) ^ ) ) ) ) ) ^ ) ) _ ..[ ",
") ) ) ;.-.-.) ) o.) ) ^ ) ) ^ ^ _ -.7.].;XPXLXkX).fX7XZ.< 6Xt O < A.^.y.1 +X* 8 7XZX9X$Xa @.<X( ) ) ) o.) ) ) ) ^ ) -.) o.-.@.{ ",
"O.O.3.3.,.;.-.) o.) ) ^ ^ ) ) ^ ;.C C { -XIXLXxX*XfXSXN.- cXu.  o O X   * &X& 1 SXZXLXwX- #.1.3.-.) o.o.o.) ) ) ^ ) ^ ) o.;.,X.X",
"[ { XX+.3.<.) ) <.) ) -.) <.<.<.) 3.<.o.=XLXDX:X:XfXfX:X~.HX%Xw . o X > /.7X!.L.zXJXLX~.- X.3.) -.o.<.o.o.) ) ) ) <.) o.<.<.,X.X",
"U ' { O.,X3.3.3.<.<.;.) <.3.3.3.4.2.,.X.&XjXZ.u L.*XfXkXnXmXvXQ.e.y., ^.8XHXkXfXn dXDX^.= | 2X;.;.<.<.3.<.-.-.;.<.3.3.,X,X3.O.[ ",
"U K } O.XX,X<X4.3.<.) <.<.3.3.3.3.XX3.'.V., * y J.S.L./.7XPXGXSXjXDXDXUXPXPX7Xk : , , + > | ,.,.<.3.3.3.3.;.) <.o.3.,.1X3.3.O.U ",
"K K W ] +.3.3.3.3.<.;.o.3.3.,X3.,.3.4.T k 1 + 8 :X:XJ.k @XkXlXNXPXLXGXGXcXkX}.V.O = 2 ; i ] <.,X3.,X3.3.3.<.<.o.o.3.5.,X,X<...U ",
"[ U U { 3.2.4.3.3.<.+.3.3.<.) 3.+.4.>.2.X.( 5 y.SXkX/.k K.&XOX6XmXcX@X'.G.J.G.M.> E  .| ~ >X,.1X3.,X3.<.<.3.,.3.<.,X3.3.2.4.{ U ",
"' W U { o.3.3.3.3.3.3.3.3.<.o.<.<X) ,X1X Xa B.%XnXSXcXwXU.9X8X8XJXJXvX%XI.&X_.S.e t >X3.1X<Xo.3.3.3.3.o.o.<.3.3.<.,X3.3.2.3.{ U ",
"o...[ .X3.4.,X,X3.3.3.3.3.<.) <.oX,X4X:.$.@ ~.GXSXFXLXAXb.DXJXKXLXPXPXAXv.xX5X|.N.@ A 1Xo.3.2X<.4.3.o.o.<.3.+.3.,.,X3.<X<.3..X[ ",
") ..[.[.3.5.2XXX3.3.<.3.3.) ) <.6.5.,.A 5 O Q.8X6XvXVXsXg.pXpXyXaXaXaXrXY.IX;X*XG.: 3 a <X<XX.5.3.3.3.<.3.3.3.,X3.,X3.3.3.3.O.[.",
") ] [ [.<.;.3.,X3.3.3.3.3.;.) ;.,.o.4.i + 7 ~.8X XkXJXsXd.z.m.m.C.T.x.l.rXIX@X+XP 1 O 5 2X4.4.1.3.3.<.<.<.<.5.3.2.,X3.3.X.<.{ [.",
"..] [ { <.;.3.,X3.3.<.<.o.o.) ;./ ^ 3Xn < fX8X6XOX+XvXsXs.c.E.x c B v.z.R.PX=XoX}.&X: 9 6.@.3.o.o.<.) <.;.2.3.2X,.3.<.3.<.) { ' ",
"[ ' K ' ) ;.3.<.3.3.<.o.) ) ) ) <.) '.y , NXNXdX$X$XdXuXq.l.W.n q v U.Y.b.AX/.S {.4X> < E 2.3...) ) ;.;.o.o.o.3.3.,X<.<.o.;.] K ",
"{.' U W ^ ;.3.<.3.3.o.o.) / ^ ^ -.2.y . 7 IXJXeXg.v.c.h.a.r.d.M.c #.Z !.j.z.# 1 @X+X= + ;  X5.) ) ) -.) ) ^ Q Q 3.,X3.<.;.-.' J ",
"' ' U ' ) +..Xo.+.+.+.../ ..+.+.%.( e , ~.mXPXwXt.h.k.k.r.f.a.p.D.v v S k.j.o 5 +X+XV.8 = oX,.) -.) ) ^ ;.#.f D 3.,.:. .^ 3.W ' ",
"U U K U { O.O.{ [.[.{.{.{.{ O.O.^ <.3 A.LXZXJX^.@ r.a.a.s.g.g.k.n.j b u s.r.@ 8 =X4X6Xp * @.-.2._ ;./ C 1.G j D ! ;.^ o.C ;.! K ",
"I I K U {.[.] ].] [ {.{.{.{ Q / ) <.2 u.LXIXLX!.o a.l.l.x.v.I.b.b.~./.!.j.c.q.A.vXxXlXQ.* | 3.( ) ;.) ^ ,.H K #.B _ Q / C ( ! K ",
"I U K ' {.{.[ ].] { { [.{ ..) ^ X.3.2 B.HXmXJX^.+ g.k.c.Y.yXyXyXtXtXyXb.c.v.d.I.bXPXPXQ.= @.<X) ) ) ) -.>.M { o.l j f D ) o.! K ",
"K K Y { O.[.{.[ Y [ ].[.} } Q ..+.~ 2 : B.NXJX!.w.l.z.v.rXuXyXyXyXuXpXtXR.z.d.I.JXLXLXeX: | :.o.^ ) ^ _ 3XF } 4.l d d g 2.o.Q ' ",
"W ' { O.) ] Y ' ).Y Y Y K L K U {.} a % < %XdXB.0.z.c.b.tXrXuXY.Y.rXtXiXrXb.g.i.%XhXjX!.3 @.1./ ^ ) ) ) O.g H 4.l d l g ( ^ ) ) ",
"' ] O.o.) ..} ' K K K K J K K K W ! 2Xa X       # c.j.Y.tXz.g.0.+ x.rXtXiXpXg.t.  $   ; 8.^ ) ^ ) ^ ) ) g d j N R g L g _ ) ) / ",
"{..X) ) O.] Q [ ! H K U K K K K [ ].XXp y e 0 = e.c.j.Y.Y.k.a.0.# v.yXaXtXrXg.f.s 0 9 p 4.+.2.^ ( <.o...d d d M F L H l / ;.,...",
"{.) C / }.}...) [.! K T K } [.O.XXO.W O.3.2X8.a @ v.c.c.l.q.e.< e.h.rXrXrXc.s.C.<X<X6.4.,X-./ ) ) ) 3.Q j ' g d Y  XT h @.2.XX|.",
"[.O.) o.O.Q ) ) ( ! J T U '  X,X2X@.{ ].}  X6.a w.z.c.k.a.0.B.$.a , c.v.v.c.0.# s | 5.>X3.%.o.^ -.o.4.} g ].T f l ].U M 3.2...[ ",
"[.{ _ C ^ _ } @.;.Q U ]..X+.XX>X3.1X4X}.OXXX6.a # n.b.h.e.; n 4.E * j.v.Y.m.4 - >  X3.+.<.^ <.) -.) 4.+.F G {.F M N m N ,X+.[ {.",
"N m Z V o.) O./ ) }  XO.~ ( 3.1X:.3.3.@.oXo.7.a > qX9.2.$.E e i { - d.uX>.qX9.n *  .3.) o.o._ ^ ^ ^ <.1XW G .X{ N m m Q +.{ {.Y ",
"v c v N ..;.) ) ;.O.`  X+.3.<.+.3.<X,.X.3.) 7.a = =.=.-.3.:.2 6 | # T.!.*.=.=.A *  .>X) ) 2.-.;.^ ;.( <./ / <.o.o.V V -.] { [ L ",
"q m N V ^ -.( ^ C ,X| G [ +.<.3.,X>X1.o.o.X.2Xi < 8.8.*.-.:.3 s ` + C &.-.=.8.E >  .3.~ _ ^ ) o.) <.) ( ) o.^ ) 5.<.-._ o.{ ' Q ",
"m M I Q ) oXX.:.) | g d S  .<.;.3.+.,.o.) ]  XS r &.7.&.%.-.p p | i #.*.,.=.8.E i ~ ,Xo.;.^ o.../ o.) ) ^ ) _ / ^ ) -.( 3.O.W Q ",
"J N H Q @.#X~ >X#XR l F S #.) ;.3.o.-._ ) ! U [.@.+.:.4.,X<.:.5.] 2X} oX}.] o.X..X( <.%.^ / ^ ../ o.) ) ( o...../ o.<._ -...V v ",
"K K K '.` G L P ` z M h F | <.C <.) ) o.] W K U { ..) -.-._ ) ( ) } ].[.{ O.+.O.../ / ) ..O...] ..o.^ ^ ^ / O.{ @.) ..C ) .Xm b ",
"H H ' T l j h g l g J F D } o.C -.^ ) ) / W K U W Q ) ^ ^ ) ) ) ..{ [ ].{ { { { Y T ' ' ].].[.].] o.) ) ) ) O.} O./ o.^ o.[.m c ",
"[ J J T R M L g d M { L G [.XX@.O.] ....] W K U W ] ............] [ [ ].].[ [ [ Y I U ' [ ].].[.O.O.o.) ;.o.O.{ } / ] / { {.N m ",
"I U U [.P L Q #.j F } G T }.{.{ ].[ U ' ' W K K U [ { [.{ ].[ ' ' ' Y {.].[ [ T K K K K K W ' ' { { / / / ..] [ U W ' ] { {.K H ",
"v m U +X(.P #X#XG R G G [ |.U ' ' K H K W K K U I [ ].|.{.{.[ ' K K U [.{ ' U I K J K J J J K U U U W W ! K ' U Y Y Y [ [ ].T H ",
"B m H ).+X'.` '.'.P G G [ } U [ [ [ U K K K I U U [ { ].[.{.[ K K K ' ' [ ' K J K K U K K K U U U U K K K K K H I Y ].[ [.{.[ H ",
"f M J ' [ { ].{.` U H K T } ].{.{.{.).Y U U K K K ' { [ [ [ ' L I J K U U U K K H K K K K H W ' ' [ [ [ Y K K H U ].[.[.{ ].].' ",
"d h U [ [ [.[ {.[.T T K H ' ].[.{ { ' W K U U J J [ [.[.[.].].[ U J F J K J J H K U U U W K ' [ { { [.{.[ T ' H W ].[.{ [ { ].[ "
};
