/* XPM */
static char *playerleft[] = {
/* columns rows colors chars-per-pixel */
"64 64 256 2 ",
"   c #280558",
".  c #370A57",
"X  c #391557",
"o  c #2E0C4B",
"O  c #311068",
"+  c #3A2E67",
"@  c #392057",
"#  c #45194B",
"$  c #451B58",
"%  c #4D1651",
"&  c #4A265A",
"*  c #55285B",
"=  c #5A3054",
"-  c #6B335C",
";  c #481B66",
":  c #451A75",
">  c #4B136B",
",  c #482567",
"<  c #542867",
"1  c #523070",
"2  c #793D73",
"3  c #6B346B",
"4  c #714C58",
"5  c #594370",
"6  c #694668",
"7  c #794565",
"8  c #754A71",
"9  c #5B485C",
"0  c #EC7C20",
"q  c #8C397A",
"w  c #8E5556",
"e  c #884C64",
"r  c #895569",
"t  c #915375",
"y  c #93696B",
"u  c #B17273",
"i  c #9E5D6D",
"p  c #EB5A49",
"a  c #D67054",
"s  c #E96954",
"d  c #F4795B",
"f  c #ED6D52",
"g  c #C77575",
"h  c #F27B63",
"j  c #C95E7A",
"k  c #1EEB52",
"l  c #FB8F3F",
"z  c #E78E1C",
"x  c #B38B6C",
"c  c #B09854",
"v  c #D3905A",
"b  c #E8845A",
"n  c #FD9959",
"m  c #F78F4F",
"M  c #F2AE59",
"N  c #D48468",
"B  c #C89967",
"V  c #D69C6B",
"C  c #CC9A74",
"Z  c #D59879",
"A  c #CD8875",
"S  c #F98A69",
"D  c #FD9565",
"F  c #FC9A65",
"G  c #FD966C",
"H  c #FD9A6D",
"J  c #F4976A",
"K  c #FD9572",
"L  c #FE9C73",
"P  c #FE9D7B",
"I  c #F69975",
"U  c #EB8F71",
"Y  c #D8A776",
"T  c #D2A56A",
"R  c #E8AA68",
"E  c #FCA26D",
"W  c #FDAB6D",
"Q  c #F7A569",
"!  c #EBB869",
"~  c #FCBD65",
"^  c #FDB46D",
"/  c #FEBD6C",
"(  c #F6B867",
")  c #EBAC76",
"_  c #FDA374",
"`  c #FDAC74",
"'  c #FEA47B",
"]  c #FDAB7C",
"[  c #F4A977",
"{  c #E9B677",
"}  c #FEB474",
"|  c #FEBC72",
" . c #FDB37B",
".. c #FEBC7B",
"X. c #F4B976",
"o. c #C2A056",
"O. c #FACD5A",
"+. c #FBD84F",
"@. c #F7E459",
"#. c #FCC165",
"$. c #F5C36C",
"%. c #FDC16C",
"&. c #F8C968",
"*. c #F5C374",
"=. c #FEC374",
"-. c #FECA74",
";. c #F6C37B",
":. c #FEC47B",
">. c #FECA7B",
",. c #F5C978",
"<. c #FED377",
"1. c #F4CD6D",
"2. c #FDEE6B",
"3. c #391687",
"4. c #3A0E81",
"5. c #392184",
"6. c #56318F",
"7. c #4D2FB6",
"8. c #725189",
"9. c #5D50A5",
"0. c #77619C",
"q. c #4938C9",
"w. c #5935D4",
"e. c #542DCD",
"r. c #6738D0",
"t. c #5A39EA",
"y. c #5A44CA",
"u. c #5C48D2",
"i. c #654DD5",
"p. c #5B58FB",
"a. c #5C4EF1",
"s. c #675AFA",
"d. c #735CFE",
"f. c #684FEB",
"g. c #6865FA",
"h. c #7566FC",
"j. c #7A78FB",
"k. c #706BED",
"l. c #6266EC",
"z. c #935289",
"x. c #A35683",
"c. c #886986",
"v. c #8F7097",
"b. c #B87786",
"n. c #AE6B8F",
"m. c #8D72B2",
"M. c #A067AD",
"N. c #CB5B8E",
"B. c #C8758A",
"V. c #D67788",
"C. c #CC6D90",
"Z. c #DF7993",
"A. c #8E73CD",
"S. c #877CFA",
"D. c #8F6FF0",
"F. c #8B55E9",
"G. c #3FB79E",
"H. c #3EA8C0",
"J. c #628FDF",
"K. c #AF8A96",
"L. c #B5A79A",
"P. c #9A90A9",
"I. c #B896A9",
"U. c #B193AD",
"Y. c #B1ADB1",
"T. c #DE8989",
"R. c #C8879A",
"E. c #D68696",
"W. c #D1938E",
"Q. c #FA9E8A",
"!. c #E6938E",
"~. c #D5A984",
"^. c #E9A686",
"/. c #FEA683",
"(. c #FDAA83",
"). c #FDA58A",
"_. c #FEAB8B",
"`. c #F5A887",
"'. c #ECB588",
"]. c #FDB483",
"[. c #FEBB82",
"{. c #FEBC8A",
"}. c #F9B487",
"|. c #FDAB93",
" X c #FDAC9A",
".X c #F8A695",
"XX c #FCB394",
"oX c #FBB69A",
"OX c #EAA695",
"+X c #CB84A7",
"@X c #D89AA3",
"#X c #D290AA",
"$X c #E39AB0",
"%X c #D8BAB9",
"&X c #D0A0A0",
"*X c #FBA9A3",
"=X c #FAB8A7",
"-X c #EDAFB4",
";X c #FEC483",
":X c #FDCA84",
">X c #FEC48A",
",X c #FDCA8A",
"<X c #F7C884",
"1X c #FCC696",
"2X c #FFD183",
"3X c #FAC6A9",
"4X c #EAC7B9",
"5X c #F9C8B9",
"6X c #F9D3BC",
"7X c #FBD6A9",
"8X c #F3F2BB",
"9X c #E6D7A2",
"0X c #A48FD1",
"qX c #8A89FC",
"wX c #9689FC",
"eX c #8A92F4",
"rX c #9898F9",
"tX c #9897EB",
"yX c #A491F8",
"uX c #B4AFF2",
"iX c #A9ACEB",
"pX c #CCB1CE",
"aX c #F8BCC6",
"sX c #EAB3CA",
"dX c #C4B7EF",
"fX c #E0A5D8",
"gX c #D6CBCC",
"hX c #F9C8C6",
"jX c #FAD9C8",
"kX c #FDDDD4",
"lX c #F9D5D7",
"zX c #ECCECD",
"xX c #FAE3C8",
"cX c #F9FEC9",
"vX c #FCE4D4",
"bX c #FDE2DC",
"nX c #FEEBDD",
"mX c #F8E8D8",
"MX c #FEF4DD",
"NX c #FDFDDA",
"BX c #F9F9D5",
"VX c #EEF4D7",
"CX c #ECD6E7",
"ZX c #FCEDE4",
"AX c #FDEDEA",
"SX c #FBE6E7",
"DX c #FDF3E5",
"FX c #FEFCE3",
"GX c #FDF2EB",
"HX c #FDFDEC",
"JX c #F5F7E9",
"KX c #FCEBF6",
"LX c #FEFCFC",
"PX c #FBF7F5",
"IX c #E9F3F2",
"UX c #DBD9E4",
/* pixels */
"F D K G G L _ _ `._.Q._._ ' P G n H P  .| | :.:.%.%.-.,.=.~ &.;.<X%.>.;.2X*.^ ' ' (._././. .^ / / / ` E ' (./.`._.] L L H H H G ",
"D G L G J P P ' ] _.`.).]./.I J ` /._.} ( =.>.=.>X:X..>...| :.>.;X:.! '.! { ` ] |._.] [ `  .| / #./ ^ ` ` } ].] /.' L H G G G G ",
"G K L H ' I a b b /._.[ [ (.`. .(.]...:.:.>.>.*.=.>.:.X.=.,XX.:...<.x > o z.!.>X`.` W } ..=./ ~ %./ / ^ ^ } } ` P L L G D G G L ",
"_ P L G L S d S b b /.].(.(._.[...=.:.-.-.;X;X<X,.=.( ~ :.| >.>. .x 9 ; 3 u T.X.].../ ~ %.=.:...%.| | } W W W E L H H G G G G L ",
"] (._._ [ J S } ' a h K I I (...=.-.-.:...>.>.:.>.-.<.<.>.%.;X>.B +   1 ZX@XA <.| :...[...=.:.| ^ } ` ` E E H L H G G G G G G H ",
"` ] [ [ >XI d >.}.I s p p a J ;.:.=.>.;X;X-.:.>.Q ~.x u C &.=.:XZ , 6 v.lX@XA OX| =.=.*.=.:...} W W E L H H L K H H G H G G G G ",
"=. .}.P _.I f :.[.P s p h a v X.:X:.;.;X>.=.-.;X!.x.. . i &.#.=.V % U.vXlX+Xn.Z.{ :.-.,.| ..| ( _ H L K G G H H L _ L H H H G G ",
"/ ` ].S a s p d Q K p d Q.U N ].:.:.>.;X,.>.;.^.C.n.I.5 r -.( -.Y $ I.JXcXhX@XC.T.^.:.=.}.XX_.Q _ L G G G D F G _ _ ' _ L G G H ",
"=.X.{.h s S f a d S L [ ' b b {.1X>.>.,.;X;.| B.j R.MXy e / #.=.V $ L.NXNXBX-XC.j !.>.;X..].} (.] ` _ L L G L L ' /.] ` W _ H G ",
"*.X.}.S d H K S p h I (.L S J ;X1X<X:.:.;X-.| V.zXVXJX0.4 >.( X.v * P.JXVXBXjXOXC.T.:.>X>...>.=.:... .] L L L P /./.(. .` ` ' _ ",
":.,X{.).S J ' P S d m n m n ` >X;.:X,X| =.<X^.N.zXcXNXc.w >.| =.V > Y.BXcXcX8X=Xb.B...:X&.>X;X,.>.>.;X .` L ' ' ] ]  .} }  ./.' ",
"[.,X>X{.[ J }.].}.Q F n n ( >.<X:.,.,X;X:.) B.N.4XcXBX$XT.%.1.-.T < L.NXBXBXnXhX3 e >.;X:X:.=.1.=.:.>.;. .` _ _ ] ] X./ | ] (.] ",
",.,.:.>.:.=.>.:.>.>.:.;X;.>.-.%.=.%.:.*.>..Xn.B.gXNXBX@XE...! '.x , P.NXHXBXBXCX8.6 Y &.$.=.=.| ..:.>.:...} } ^ } | / / /  .(.] ",
"-.=.:.:.:.>.:.=./ :.;.>.:.| ~ ~ / ^ / =.:.U R.MXcXBXjX$XN.N.C.q o   L.NX8XcXBXzX3   ; 1X%.| ..:.:.:.:.;.=.=.%.%.| / %.#.| ] /.[ ",
">.;X;.;X[.[.:.,.;X:.*.%./ / ( =.$.| =.-.:.^.b.&XVXVXvX-XE.$XsXR.z.8 L.NXBXBXxX5Xx 6 & <.=./ >.=.:.:.:.*.| %.%.#./ %.#./ | (.(.' ",
";...X.......:.*...:.:.| / *.$./ ~ >.X.;.{.`.C.N.-XNXxX=X3XBXJXvX.XZ.4XMXNXmXhX).oXn., ,.>.>.*.<X-.=.:.=./ / / / / / %./  ././.] ",
"| ..] (.(.] X...:.:...=.%.%./ / $.-.[.:.:.{.Y 7 W.7XkX=X3XSXAXkX5X-X=X3X3X=X|.XX.Xb.& [.[.=.>.-.>.>...%.%.~ / ~ %./ / } ] (./.).",
"/ } ] (.(.(.]  .:.:.:.:.:.=.| / :.=.;.1.,.:X'.& b.3XlX5X3XSXDXnXmXkX5X*X=X|..X.X=Xu , >.:.>.:.:X:.:.=.| / %./ %.%./ / } ] /././.",
"/ } ` (./.`.] ].=.:.:.:.>.:...:.;X-.=.<.:.| ) * I.vXkXjXjXbXvXkXkXvXkX6XjX=X|.). Xu , -.&.<X:.:.:.:.=./ / ~ / / / / / } ` ] /./.",
"} ` ] /./.(.(.(.:.:.-.:.:.:.:.>.-.*.>XX.X.{ ~.& U.MXjXkXkXSXvXkXkXkXkXkXnX5X*X). Xu < '.:.;X=.:.:.=.=.| / / ~ %.%.~ / /  .].] (.",
"] ] (./._.(.] ] :.:.:.=.,.:.:.>.:.:X;X..T.t # o I.bXjXkXmXZXDXDXJXZXDXGXAXvX5X'. Xu $ g OX:.&.-.=.=./ %./ / ~ / / / / | |  .] ' ",
"(./.] /.(.(.] ] ....:.:.-.:.:.>.;.,X{ g E.0Xz.7 %XDXbXSXZXGXGXGXSXZXZXGXAXGX6X`._.&Xv.#X$X`.X.%.=.%.%.%./ / / %./ / #.=.| ` _ L ",
"(./././.(.] ] (. . ...| :.:.:.=.%.>.~.$ gXPXMX=XxXZXSXDXZXGXAXAXJXGXGXZXGXGXjX|./.hXLXLXsXg X.&.%./ / / / / / ~ / / ~ / | ` L L ",
"(.] ] ] (.(.(./.' ]  ...| :.:.>.1X-.B , UXGX3X).xXSXKXGXDXDXZXDXKXGXDXZXPXZX6XXXOX XlXHXP.- ].#.~ $./ / / / / / / / / / ^ _ L L ",
"} } } | } } ] /./.(. .} / *.=.=.;.1.Y - pXhX`.' %XzXlXmXZXKXMXZXnXAXIXvXgXlX5X.X|.`.oXKXv.$ { -.:.| / / / / %.| / / / / ~ Q ' /.",
"/ | | | / /  . .] ` } | / / / =.:.=.;XY 5 t V. Xy 6 =X1X1XvXkXbXvXmXMX4X5 K.*X).|. X!.+X2 * ! =...=./ #./ / / / / / / / / } ] /.",
"/ %.=.%.~ ~ ^ / | ^ / / / ~ ~ #.| :.*.&.3 q E.=X2 ;  X^.-XjXbXUX%X%XxX$XX u XX|..X X=X+Xz.3 X.$.| %./ / #./ / / #.~ / %./ |  .] ",
"=.%.=.%.%./ ~ / / / / / $./ ~ ~ / ~ ,...u +XlXoXq 1 .Xt U.LXLXpX& 1 W.@X@ u XX X|.5XVXKX#Xi / ( | / / ~ / / / / %./ / | | ;... .",
"| ..:.=.| =.%.%.~ ~ %./ | %./ / $.~ { W.E.4XAX6X2 & oXe 6.Y.pXv.O O u &XO b.-X=X|.hXPXLXaXZ / =.%./ / / / / / / ~ / / =.:.>.:.;X",
" ...:.:.:.:.=.*.%.~ / | =.=.=.=.-.-.B 1 gXMXSXlX6 # =Xr o + < , O X &XsXX n.lXaX*XhXLXLXhX(.^ | =.=.| *.=./ / / %.=.=.=.=.:.[...",
"'  .:.:.:.:.:.:.%./ | =.=.=.:.:.%.:.C ; UXHXSXhXK.C.CX#X8   >   # x.%XzXU.sXsXaX#XE.sXLX6X/.>.| :.:.:.:.| | %./ :.:.>.:.:... .` ",
"I ` | :.>.>.:.:.=./ =.=.:.:.:.>.,.>.Y < gXDXSX=XaXaXGXjXu ; X X 6 *XjXnXlXaXfXaX+XC.b.LXhX/.<X:.:.:.:.:.=.=.%.%.:.:.:.-.>.>. .] ",
"H ' ].:.>.;.;X:.=.=.:.:.:.=.:.:.>X1.Z ; 1 1 1 , g 3XHXKXIXUXUXUXCXxXGXbX3X@XV.V.C.x.= + z.E.].>.:.>.:.=.:.:.=.=.:.:.:.>.;X..` L ",
"H ' ] :.:.>.:.>.:.:.-.:.:.:.:.:.:.<.B & < $ % O b.=XmXKXPXLXLXPXLXZXPXxXXXB.C.B.E.z.X > t T.X.-.:.>.=.=.:.:.=.:.:.:.:.:.:. .] L ",
"' ' (...:.>.;X:.:.>.-.:.=.*.=.:.,.>.'.~.Y Y ~.% t Z.E.E.!.aXxXSXzXoX=X.XZ.N.#XaXhXn., ) { XX=.;.:.:.*.=.:.:.:.:.>.>.:.;X..].] ' ",
"(././.| ..>.>.:.;X>.:.:.=.=.=.:.>. .<.>.*.( N 2 x.+XE.M.#X3X6XZXZX=XoX$Xn.+X%XlXKXI.8 C R 1X&.,X:.:./ =.:.:.:.:.>.:.:.:... ././.",
"(./.(.} | :.:.=.>.;X:.=.%.=.%.=.,.>.| ..<.x ; x.!.{.jXyXiXPXPXLXLXxXnXCXh.dXLXDXvXvXhXO x 2X%.;X:.=.%.*.=.:.:.>.,.:.:.=...` (./.",
"] ] (.} =.:.>.>.:.>.:.=.| =.%.=.<X>.:.X.x 6 + n.*XXXDXtXD.uXuXuXdXiXdXyXt.dXHXvX4X6X6XO 4 x ;X>.=.%./ %.=.:.:.>.:.:.=.:...X.] ] ",
"L ' ] | =.:.:.>.-.:.=.| | / #.~ ( *.<.'.*   < Z oX=XPXrXp.s.p.l.a.p.f.f.e.pXDXkX=X3XzXo   * R &.( / / %.| :.:.:.>.>.=.%.| | ` E ",
"H ' ] } %.:.:.:.-.:.:.| | / ~ ~ %./ ! / 1 3 Z .X`.=XKXiXp.k.g f x G.H.s.e.iXbX=X).3X6XsX8.< X.&./ %.%.~ / =.=.=.:.:.:.%.%./ W E ",
"H _ (. .} | :.{.:.| ..].} ~ #.=.~ ~ >.>X* 7 3X_..XoXFXiXp.d.z z z k H.f.q.uX8X(.(.3XjXMXn.# $.O.%.| / / / %.=.%.:...=./ %./ W H ",
"H ' (.] } } ..].[. .} ] /.} / | =.-.B - : t *X].t 8.qXg.A.~.Q m a 9.u.u.y.F.D.k.F.0XPXGXv.O 3 C %./ / / | | %.%.%.=.%.%.~ / ^ E ",
"G P /.(.] ] ] (._.`.] /.(. .| / } -.C $ X t .X1X2 O d.p.M.W ` l a r.e.e.e.f.p.g.q.m.IXGXP.. X T %.%./ | / / / %./ / / / / ^ W H ",
"G K (.(.(.' ).(.] (./.] ` ^ / | / O.B 1 W.oX.X X7 @ w.e.x.z 0 a l.w.7.y.w.r.q.w.3.c.SXAXnXgX1 v =./ / %.%./ / %.#.%.~ / / ^ W E ",
"L _ ] (.(.)././.(.(.(.' W W / %.( ~ C , OX3X-X7X8.3.w.a.v.N m K.g.i.f.f.i.y.y.r.+ c.mXFXPXgX1 C %.%.#.%./ / / #.%.%.| / ^ ^ ` _ ",
"_ ` } }  .] ' ' /./.] L _ ' ] ^ *./.A & sXLXJXDXA.t.h.g.j.qXqXwXrXrXyXqXh.d.f.w.O c.AXGXJXgX1 v %.%./ / %./ ~ / ~ | / | | | } } ",
"` } / / } ] _ L _ P L H G P _ E '.[.A < gXJXPXMXA.e.h.g.qXrXtXrXeXeXrXqXJ.h.s.u.3.8.SXvXI.8.* Z %.$.%./ / / / / / / | %./ %.| | ",
" ./ #.#.| ` E H E L K G D G L _ ' ].x , IXPXLXHXA.q.g.qXtXwXyXrXrXyXyXrXyXS.h.s.3.v.vXnXv.o X C ~ / / / / / %./ %.=.%./ %.#.#.%.",
"/ =./ } }  .` Q H G G L L [ }  .[ _.^.u v.v.v.c.9.r.qXwXrXeXS.l.9.f.k.S.rXk.g.s.+ & v.0.1 > w Z [.) ) { *./ / ^ / / %.#.#./ } [.",
"} / | ^ `  . .} _ H H L _  ...;.>.[ ] '.- o o % 7.r.rXeXyXwXh.7.# 7.a.k.wXj.g.f.6.X . > % 2 h b d S b H | / ~ =.~ / / / / / } ] ",
"/ / / | } } } } ` _ H _  ...;X;X..:.) }.^.~.Y { 0.t.h.S.rXwXj.y.X > 7.i.h.g.g.d.3.7 Y ^.v N E s d K J I ..%./ %.%./ / / | } ` /.",
"n ( / / / ^ ^ / ` E ` ` ..:.:.:.:.=.[.[.=.&.-.{ 8.7.d.S.wXJ.a.9.6 7 6.7.a.l.g.l.5.w >.<X^ ' F b R ..) ) =.%.%.%.#./ | } } ` ' /.",
"m n ~ ~ / ( / | } ` ` } ..>.:.=.:.>X;X=.X.>.) 3 . 5.g.g.h.h.3.r <.X.t : q.i.h.g.5.r >.-.%.[ R Q ) X.) | :.~ / / / / / ^ ` _ I L ",
"l n ( / %./ %.| | } / / =.:.>.>.,X%.-.>.( :.'.* 8 x Y.L.A.g.  y =.y y u n.U.I.P.1 4 ....^ } ;.*.| / / =./ / %./ / / / | ` ] _ _ ",
"n Q ^ | / ~ / / %./ / / / =.=.:.=.-.-.R ` {.! & o.2.2.+.U.g.3.r ^.$ c M #.O.@.@.4 r :./ &.O./ / $./ *.( ( | | / %.~ %.%.| ` ' _ ",
"M Q } } / / #./ %./ %.%./ / =.| =...=.| ' _ R < o.2.2.+.'.U.O w ^.X c ~ #.O.<.@.9 8 / $.;.^ } X./ ~ / / / | ^ | %.~ ~ / } ` E J ",
"G L _ } | | %.$.%.%./ / / / #.%.%.=.%.^ H Q U - o.2.2.O.&.O.< y T = x =.( +.2.<.4 w ! ~ }  .(.` / | ~ / | }  .[.| | | |  .` n l ",
"G L _ _  .| / / | / / / / | | / | | %.^ P n J B.R O.&.&.( #.N V ` g Z ] } #...X.A N ` ] ` [  .} | / / / | } ] ` } | | .. ._ n m ",
"G G L _ ` ` } W ^ } ` } ..| } } W } ( ` /.G D P ^ ^ ` | }  .| } ` /.(.' ] (.Q.L E P K Q./.[  .] | | / $.| } ] ' W ^ } ` ] _ n m ",
"G L L ' ' ] _ L H E W ` ]  .` _ _ ` Q _ ' K D n P /.] _. .(.' ] P ] ] /./.).' K F K G K _ _ ] P } } / / |  .' ' H E _ ] ] ' H F ",
"D H ' ] (./.] L G H L L _ [ ' ' L _ _ _ G H G G P ' ] /.[ ` )._ _ P `.(.).] G L H L H F G L L P _ W W W ` _ L K G L ' (././.' _ ",
"G H ' /.(././.] H H K G L P /./.P L K L F G K P ' ' _.] _.[ /.E L L ' /.L L D L L G H J G K J _ L L E F E L H H H _ ' /././.] _ ",
"D L ' /.(._.] ] H H G G L ' /./.(.' L L H H G K I /.)./._.' _ H J H L L H K K G G D G F H P H _ ' ] _ L L L G G _ ' (.(.(./.' P ",
"S K ' /././.] ' E G J L ' ] (.(.] (.H L K G F L ] _ ] (.] (.P K J P D F L G K F L G K G G L ] ).(././.' P L F F _ ] (._.(.(././."
};
