/* XPM */
static char *playerup[] = {
/* columns rows colors chars-per-pixel */
"64 64 256 2 ",
"   c #1F003E",
".  c #1E0657",
"X  c #1C004C",
"o  c #290858",
"O  c #370A57",
"+  c #39165A",
"@  c #2B0D4F",
"#  c #280061",
"$  c #370B68",
"%  c #381667",
"&  c #331471",
"*  c #3D205A",
"=  c #46165A",
"-  c #491E50",
";  c #4A2957",
":  c #552759",
">  c #58345C",
",  c #57354E",
"<  c #65385B",
"1  c #753C55",
"2  c #451A67",
"3  c #491368",
"4  c #523168",
"5  c #52296C",
"6  c #673866",
"7  c #703571",
"8  c #601E68",
"9  c #78515A",
"0  c #7B4A69",
"q  c #7A5566",
"w  c #744E76",
"e  c #5E4268",
"r  c #843272",
"t  c #8A5657",
"y  c #9B705B",
"u  c #865668",
"i  c #874977",
"p  c #945774",
"a  c #8B4E71",
"s  c #976569",
"d  c #9D7073",
"f  c #A47865",
"g  c #B86779",
"h  c #B3746F",
"j  c #B46A62",
"k  c #ED5A4C",
"l  c #D96C53",
"z  c #E8795A",
"x  c #F47B5C",
"c  c #EB6A52",
"v  c #CB757B",
"b  c #ED7C63",
"n  c #F87866",
"m  c #DF5D4F",
"M  c #F78D3D",
"N  c #B3856A",
"B  c #B38E6F",
"V  c #D2895B",
"C  c #FD9859",
"Z  c #F38D57",
"A  c #FBB65D",
"S  c #FCA55A",
"D  c #CA9568",
"F  c #D7996B",
"G  c #CF8D73",
"H  c #EA8766",
"J  c #F5896A",
"K  c #EB9B66",
"L  c #FE966C",
"P  c #FD9A6C",
"I  c #F99666",
"U  c #E69A79",
"Y  c #FE9672",
"T  c #FE9C73",
"R  c #FE9D7B",
"E  c #F69876",
"W  c #EF8B77",
"Q  c #D6AC73",
"!  c #E8A66C",
"~  c #FCA26D",
"^  c #FDAC6D",
"/  c #F7A869",
"(  c #FDBE66",
")  c #FEB46C",
"_  c #F6BB6B",
"`  c #FEBD6C",
"'  c #F7B566",
"]  c #E6A977",
"[  c #FDA374",
"{  c #FDAC74",
"}  c #FDA47C",
"|  c #FDAB7C",
" . c #F5A877",
".. c #EAB873",
"X. c #FDB573",
"o. c #F5BD74",
"O. c #FEBC73",
"+. c #F6B37C",
"@. c #FDB37B",
"#. c #FEBC7B",
"$. c #F3BA79",
"%. c #EAB865",
"&. c #FCCE5E",
"*. c #FFEC5A",
"=. c #FDC165",
"-. c #FDC16C",
";. c #FDCA6C",
":. c #F7C568",
">. c #FCD66C",
",. c #FDC374",
"<. c #FECA74",
"1. c #FEC57B",
"2. c #FEC97C",
"3. c #F4C877",
"4. c #FCD478",
"5. c #E9C371",
"6. c #FDF267",
"7. c #C5C563",
"8. c #3B1A85",
"9. c #461C90",
"0. c #472995",
"q. c #502D8B",
"w. c #4E2FB2",
"e. c #6134A8",
"r. c #795090",
"t. c #6E49BE",
"y. c #5D40B4",
"u. c #4C36CA",
"i. c #5637C6",
"p. c #593AD6",
"a. c #6134D2",
"s. c #663EEC",
"d. c #593AE0",
"f. c #5A45DA",
"g. c #554DD2",
"h. c #6847D7",
"j. c #754FD0",
"k. c #5B49E5",
"l. c #5A55ED",
"z. c #6958EA",
"x. c #675BF8",
"c. c #644AE9",
"v. c #6A64FD",
"b. c #7466F9",
"n. c #5C61F0",
"m. c #823FB2",
"M. c #8A518D",
"N. c #A6598A",
"B. c #AF538A",
"V. c #8A6A92",
"C. c #B86A9A",
"Z. c #B36E8E",
"A. c #B06FA9",
"S. c #9B5BA8",
"D. c #C66789",
"F. c #D46988",
"G. c #C97589",
"H. c #D47887",
"J. c #C66B95",
"K. c #C97499",
"L. c #D37B98",
"P. c #D46994",
"I. c #D56B94",
"U. c #9A6AD2",
"Y. c #876DF5",
"T. c #8D5ED9",
"R. c #C37AC1",
"E. c #B18B96",
"W. c #B68AA6",
"Q. c #B194AA",
"!. c #B9A6B4",
"~. c #B8AA83",
"^. c #D78688",
"/. c #CB8999",
"(. c #D5928F",
"). c #E59786",
"_. c #E58797",
"`. c #F79D95",
"'. c #EB9390",
"]. c #D6B088",
"[. c #ECA688",
"{. c #FEA582",
"}. c #FEAA83",
"|. c #FCA58A",
" X c #FDAB8C",
".X c #F5A887",
"XX c #FEB383",
"oX c #FCBC82",
"OX c #FEB28D",
"+X c #F9BA89",
"@X c #EEA995",
"#X c #FCAB93",
"$X c #FCAC9C",
"%X c #FAA797",
"&X c #FDB29B",
"*X c #FBB696",
"=X c #E9B687",
"-X c #DA8BA6",
";X c #D99BA7",
":X c #D093AF",
">X c #EB96B0",
",X c #D0ADB4",
"<X c #FDABA4",
"1X c #FCAAA4",
"2X c #FDB2A4",
"3X c #FDB6AA",
"4X c #FBACB7",
"5X c #FDB6B9",
"6X c #E6ADB2",
"7X c #CDC693",
"8X c #FEC482",
"9X c #FDCA83",
"0X c #FEC28A",
"qX c #FAC789",
"wX c #FDD284",
"eX c #FDC495",
"rX c #FCC6A8",
"tX c #FBC6B7",
"yX c #F2CDB7",
"uX c #B088D3",
"iX c #CF99CD",
"pX c #D6AAD6",
"aX c #F7ADCB",
"sX c #FEB4C3",
"dX c #FDB4CC",
"fX c #FDBACC",
"gX c #F8B8C7",
"hX c #FDB5D3",
"jX c #FDBBD3",
"kX c #FCB7D9",
"lX c #F1ACD3",
"zX c #FDABD3",
"xX c #FAC8C7",
"cX c #FCDCCD",
"vX c #FAD6C9",
"bX c #FBC5D5",
"nX c #FDDCD4",
"mX c #FEDCDA",
"MX c #F9D5D3",
"NX c #E9D2CA",
"BX c #FEE6CC",
"VX c #FEE1D4",
"CX c #FEE4DB",
"ZX c #FEECDD",
"AX c #F7E8D8",
"SX c #FCF3DA",
"DX c #EEE3DF",
"FX c #FFC9E3",
"GX c #FEEDEB",
"HX c #FDE7E4",
"JX c #FEF3E4",
"KX c #FCF4EB",
"LX c #FAFAE9",
"PX c #F7EEF1",
"IX c #FEF2F6",
"UX c #D2C3C8",
/* pixels */
"I L I I L K | {.| .X}.} [  .} L L T R {.` _ 3.2.0X4.4.,.,.A >.#.2.1.<.;.1.5.oX{.^ }.|.{.}.}.X.-.=.) ^ [ [ | {.| }.} T T T L P L ",
"L I T T L Y {.E | .X.X}.}.|  .T / [ | @.-.<.oX[.#X! D G Q O._ 9X8X#.2.Q ^.D F  .`.#X| { ) o.X.` -.` ) ^ { @.| }.} } T T L L L P ",
"L L L L Y L z z J }..X.X{.} {.@.@.O.#.,.,.1.U v D.N.o O 4 +.<.2.3.3.9Xu o O 8 C.B.H.{ ( ` O.` O.:.-.` ) ) O.X.| [ T T L L L P P ",
" .[ T L } T c J H H .X{. XOXOX}.8X#.<.8XqX0X).D.P.C.2 % e o.2.o.8X` ` s # = 0 -XC.W X.` o.1.O.` -.-.) ) ^ ^ { [ T T P I P L I P ",
" . .+.} } K Z oXE b J Y J E +.#.8X1.1.3.9X9X).D.6X6X!.e < #.1.9XX.( A s 5 Q.,X6XK.G O._ 5.1.1.O.` X.| [ T P P P L L L L P L P L ",
"{ | | }.+XE Z 9X#.J c k l l V 9X1.1.1.<.<.<.[.K.NXBXZXr.: ` =.3.:.,.:.9 4 NXJXvXL.).8X2.<.,.O.O.) [ T Y T L L L L L P L L L L L ",
"O.@.| R  X} x @.+.T m m n z V 1.1.2.1.1.,.F ^.J.NXnXMXA.a A #.+X_ _ ` h M.vXmXvX-XH.).+.1.O.#.| [ T T L Y P P L T T ~ T P L Y L ",
"O.X.oXW l m k b / Y c n Y b H 8X9X<.1.0X@XD.J.L.tXHXvX>Xv 3...( ( O.;.^./.tXmXMXL.C.J.).+X| }.} ~ T L L L I P I } } E [ T P L T ",
"` $.+Xb k J z m c L  . .R x H 0XqXeXeX<.%.H.J.F.jXmXcX:Xv A ,.1.` :.#._.L.NXHXMX/.D.F.).-.+.OX{ @.X.{ P T L L [ R {.{.{ { [ T L ",
"-.o.OXW x P T J k x P | L Z I oXqX8X8XwX=XG.-XvXcXAXBXV.+ : 0 G.F.p ; ; 7 NXVXvXvX6XJ.).8XqX1.,.#.#.@.| T T R } {.{.}.X.X.| } [ ",
"1.qXqX.XJ J | {.J b Z C C C X.8X0X8X9X8X[.v :XSXVXMXVXV.o % 8 G.G.i + O 6 xXmXcXSX6XJ.).1.9X<.8X1.1.8X@.} } R R  .| @.O.X.| | R ",
"9XqXqX0X} K +.XXXX .I C S / 3.3.#.3.<..X_.D.-XrXrX3XBX,XQ.Q.iXxXyX,X:XQ.!.MXvXrXrX(.K.H.U #.;.O.,.2.1.#.@.[ } | { @.O.` ` { {.| ",
",.O.1.2.,.3.3.2.1.9X1.1.,.3.,.,.,.3.,.G P.D._. X.X3XCXJXLXSXKXIXPXPXIXZXHXHXxX#XOX'.g P.H.{ :.o.,.1.2.1.#.O.X.X.X.O.,.-.) | }.}.",
",.,.<.2.1.2.3.<._ ,.<.1.1.,._ ) #._ <.G N.L.^.$X%X3XxXHXSXLXAXPXLXLXKXBXvXvXtX$X#X;X^.C.g O.,.#.1.1.1.1.,.,.` ` O.` ` ( O.| }.| ",
"9X1.9XqX@.oX1.,.,.<.,.X.O.,.-.O.A O.9Xu 7 bXtX.XOX#X$XxXAXIXGXKXDXJXPXAXrX2X X|. X3XvXV.< =X<.O.1.9X1.,.,.` -._ -._ ( ( X. X}.| ",
"3.#.#.@.oXoX1.O.1.1.<.-.' ( -.` ` 3.2.q 4 NXyX%X#XOX$XtXCXHXKXSXJXJXGXHXvX3X#X$X*X3XvXV.: =X<.2.1.2.1.,.O.` ` -.( -.-.` @.}.{.| ",
",.@. .}.}.}.X.#.,.2.,.O.,.,.` ( _ ,.>.u 2 w E.vXtXxXvXnXHXGXGXHXKXKXGXGXmXvXtXtXvX:XM.5 , ..,.9X<.<.o.` ` ` ` ` ( ` O.@.}.}.}.| ",
"` X.| |  X| | #.,.2.2.1.,.,.,.O.-.9X9Xu X   r.ZXnXAXBXZXKXPXLXJXJXJXLXLXHXAXCXnXSXQ.$ # > =X9X#.1.1.,.O.` ` ` -.` ` O.X.| }.}.| ",
"` X.| }.{.}.| | <.1.2.1.1.1.1.1.,.0X8XB d r W.JXMXnXnXVXZXAXCXCXCXCXVXCXVXVXnXnXvX,Xa p N 3.1.1.1.<.,.-.` ` -.` -.` ` X.@.}.}.{.",
"X.@.| {. X}.}.}.1.1.2.2.2.1.1.8X2.1.1.1.+XH.;XcXMXnXvXcXVXnXmXmXmXmXVXcXnXVXnXnXAX5XG.).1.9X1.,.1.1.,.` ` ` ` ` -.` ` ` X.@.}.{.",
"| | }.}.|.}.}.}.1.1.1.1.2.1.1.1.;.,.8XwX+.D.;XHXMXVXcXcXnXnXmXMXMXnXVXVXnXnXmXVXAX6XJ.[.<.8X1.1.,.,.O.` ` ` ` ` ` ` -.` O.| }.{.",
"}.}.{.{.}.| | | #.#.1.1.<.2.,.2.<.2.1.2.+.J.-XjXvXnXnXnXnXnXMXxXbXbXnXnXnXnXcXcXxX>XK.).;.#.,._ O.-.` ` ` ` -.` ` ` ` ` X.{ } T ",
"| | {.| }.| | }.| XX#.#.1.,.,.1.3.oX2.<.X.C.-XdXvXmXmXnXnXvXxXgXjXxXvXnXmXnXcXcXkX>XJ.'.9XoX-.=.` ` ` ` ` -.` ` ` ` ( -.O.[ ~ T ",
"| }.| }.| | {.}.}.}.| O.1.2.1.,.<.8X9X9XF 7 Z.bXfXbXjXxXxXtX3X4X1X2X3XxXbXFXbXbXbX/.7 N ;.` -.O.` O.,.` -.` ` ` ` ` -.` X.^ P T ",
"X.X.X.O.O.@.|  X{.| { O.` O.1.1.8X2.,.2.Q @ r.bXaXhXhXgX5X|.}. X%X%X#X3XhXdXsXfXfXA.% y 4.,.1.` =.` ` O.O.O.` -.-.` ` ` ' ^  .{.",
"` O.O.` ` ` X.| }.}.@.O.` =.` ` ,.,.<.oXG = M.jXzXhXdXgXsX4X<X#X$X$X2X5XdXhXkXhXxXA.* s +X3.3.#.=.=.=.=.=.( =.` ` ( ( ` ` O.| {.",
"_ ` ` ` ( ( ` ` X.O.) ` -.` ` -.-.%.3.U B.3 M.bXaXhXhXkXhXhX5X X#X<XsXjXfXkXkXaXbXW.= i '...3.1.O.-.-.( =.( ` O.` ` ( ` O.O.@.| ",
"_ -.,.-.` ` ` ` ` ( ` ` O.` ` ` #.O.1.^.N.3 V.bXgXdXdXdXsXsX4X#X{.2XsXdXsXsXdXsXbXA.= w L.#.-.` O.O.` ` ` ` ,.O.-.` ` ` ` O.#.@.",
"#.1.2.1.O.` _ :.` ` ` ` O.-.` _ (  .H.4XNX,X,XkXhXdX2X<X2X*X$X<X#X<X2X<X<X$X3XjXjXlX,XpX4XG E o.=.-.-.` ` -.( =._ ` O.,.,.1.1.8X",
"XX#.2.1.1.#.1.-.` ,.` ` O.,.,.,.,.@.g 6XZXAXmXjXkXsX%X.X%X#X}.#X&X%X#X X%X#X2XjXaXbXJXSXvXK.).` -.,.,.,.O.` ( ( -.,.,.<.2.2.1.XX",
"R @.1.1.1.1.1.1.=.-.` ,.,.1.8X#.-...i W.!.Q.:X>XaXsX3X$X$X#X X X X#X#X%X<X<X4XgXaX>X!.Q.W.M.).:.1.8X1.1.1.O.O.O.,.,.1.1.2.1.@.{ ",
"T | 1.1.2.1.1.1.,.O.-.,.,.<.,.<.wXQ O = = + 0 K.aXhXfX3X X X<X$X#X X#X*X&X5XhXhX_.a + % = = f 4.1.2.,.,.-.-.-.O.1.1.1.1.9X1.@.[ ",
"P [ @.1.<.1.1.1.1.,.,.2.1.1.8X9XqXQ 3 2 % 2 7 I.>XhXaX4XOX%X#X X#X$X<X|.`.gXdXlXL.i : = + 2 f 9X2.1.#.1.1.1.,.,.9X1.1.1.1.oX@.[ ",
"P } @.#.<.2.9X8X1.,.1.1.,.,.1.1.2.:.#.q ; %Xh + 2 4 P.D.H.%X X#X.X*X X^.F.J.p + + u %Xr.> ] :.9X2.1.1.#.1.1.,.2.2.1.1.1.8X@.{ T ",
"[ } }.#.,.1.2.2.2.1.2.,.3.o.1.1.#.2.>.q 4 #Xg . @ = P.F.H..X%X%X{. X ._.P.F.B.$ o a  Xw > $.3.#.2.1.,.o.,.,.1.9X1.1.1.2.oX+.| R ",
"| }.}.#.,.9X8X2.1.1.1.1.O.,.,.,.2.=Xd < < &XH.7 p V.:XA.A.1X4XsX4X4X3XR.S./.K.r.7 N. Xp ; f Q 4.<.,.,.,.1.1.1.2.1.1.1.1.#.XX{.{.",
"| {.{.@.,.1.8X2.1.1.2.,.-.` O.,.4.].o O < #X_.I.kXFXfXT.s.gX5XhXgXkXhXU.j.pXbXbX-XL.3Xa X o d 3.O.,.,.:.1.1.1.1.1.1.1.1.#.@.}.{.",
"| | | X.-.1.1.1.2.1.2.1.,.O.-._ >.F & 7 i |.@Xv zXsX5XU.h.iXiXpXpXiXiXT.t.lXhXaXL.).#Xg 7 % N 9XO.-.O.-.,.1.1.2.1.1.1.,.O.+.| | ",
"[ } }.X.O.,.1.,.1.1.,.,.` ` -.-.$.] o d 1X%X<X@XfXhXdXU.w.y.h.b.b.x.t.i.j.lXfXfX$X .@X&X^.2 f :.` O.-.` -.,.1.1.1.1.,.,.O.O.{ P ",
"P }  .O.-.,.1.1.1.1.,.` ` _ -.-.O.K o G.0X.X X&XaXdXdXU.u.d.k.v.b.l.i.i.j.lXhX5X1XXX<X&XG 8 f <.o.` ` ` O.-.O.1.8X1.,.,.` O.^ ~ ",
"P } }.@.O.O.1.8X8X1.O.XXXXO.-.) 1 e ).|.#X#X1X|.#X`.b.0.5 A.C.A.C.C.C.m.s.b.uX2X1X X$X=X.X).p 1 F <.' =.-.` ` ,.1.1.,.` =.` ^ P ",
"P T }.| X.X.@.XXXXX.| | | X.` ' 5 2 3X*X%X}.<X}. .@Xv.w.: F.F.F.P.P.v m.k.n.U.+X.XOX%X$X#X*Xw $ D -.` -.O.` ` ,.,.,.O.` -.O.) P ",
"I R {.| | | }.}.}.| } | | X.,._ ; 4 #X@X$X&X@X'.iXuXg.0.: -X;X;X;XZ.N.m.i.f.T.:X-X|.%X%X`.$Xu 5 D -.' -.` -.` O._ ` ` ` ` O.{ P ",
"L R } | } {.{. X{.{.}.}.}.+.o._ : 5 *X.X|.&X'.J.T.x.s.9.4 GXLXPXLX!.+ 9.d.i.d.Y.A._.*X#X#X*Xu = D -._ ( O.-.` ` -.( ` ` ` ) { P ",
"T } | { { {.{.{.{.}.}.| { { X.' ; 5 U #X#X.X'.N.T.k.p.9.r.UXDXSXIXQ.% 0.p.i.f.z.S.H..X X X;X0 = D -._ -.O.-.` ` ( -.` ` ` ) { [ ",
" .| @.O.@.| } ~ | {.} [ ~ { | ' 4 & - g $X<Xg & w.g.i.i.w.2 V.SXVXE.= 0.u.u.f.i.3 i %X&X/.6 $ 5 V :.' ;.` ` ` ,.( ` ` ` ` O.) X.",
"{ X.` ` X.| [ P [ R } P P T } / 5 X & E.9X*XN & w.p.u.i.w.$ r.LXLXQ.+ 0.p.i.u.u.3 i *XeX).: o O D ;._ ;.-.` ` -.` ` ` -.` -.-.O.",
"X.` =.=.) | [ ~ T Y T L L R T E j a % a d N.a o h.h.c.g.w.9.r.Q.Q.w % 0.f.h.h.c.& 7 d N.p - < d ] <._ ( O.` ` ` ` -.` -.-.( =.-.",
"O.O.X.@.{ @.X./ I L Y Y T  .X.@.0X@Xo . . X + % n.v.b.k.w.a.w.X X @ + 0.k.v.b.x.q.o o . # $ t O.X.! ! O.-.( =.' ` O.` -.( ` O.@.",
"O.` O.X.X.@.X.) [ T Y T  .@.#.#.1.U 7 9 q q > % z.z.v.k.g.w.e.u q 7 $ e.z.l.v.x.0.: q 9 1 r j c z H H  .#.` ` ,.-.` ` ` ` ` X. .",
"` ` O.#.X.O.O.) [ [ T } | #.1.8X<.%.[. .+.eXd + k.v.b.z.k.& 0 ,.5.h % w.v.n.v.v.8.9 =X*XI Z Y n b Y H ~ O.-.=.-.( ` -.O.O.X.| | ",
"S ^ ` O._ ) ` ` | ~ [ | #.1.1.1.2.,.oX@.#.qXB o l.v.x.v.g.% u wXwXN + w.v.x.x.x.8.u <.eX} ! K V K XX! / ` -.;.` ( ( ` O.X.{ } } ",
"M C A ` ` ` ` O.X.{ { #.#.1.1.2.0X8X0XoX5.;.h $ E.=X7X7X~.- q 4.3.h + V.7X7X7.].4 q 3.,.+. ...] ..$.! 3.1.O.O.O.( =.` X.{  .T R ",
"M C A ` ` ` ` ,.O.O.O.#.O.,.1.2.3.1.9X` -.>.j % ! &.*.6.7.+ i 4.wXN - B 6.6.>.%.6 9 <.=.:.( ` o.-.o.' ,.O.O.) O.` ` -.` {  .} } ",
"C / ) ` ` ` ` ' -.` ` ` ` ,.,.2.3.<.O.A }.#.G 0 %.&.>.>.5.u h ,.2.D u B *.>.>._ p y :.` _ ` ( O.( =.=.( ( -.-.` ` ` ` ` O.@.} T ",
"I ^ ) ' ` ` ( ` =.( ( ` ( ` ,.1.1.O._ ( #X/ ) #.+X_ O.-.X.<.&.<.*X,.,.9X1.O.oX-.;.1.#.#.-.O.X.O.` _ -.` O.O._ ` O.` ` ` O.{ P I ",
"Y T | | X.,.:.A ` ( ` ` ` ` ` ` ` -.-.) ~ L T [ X.` =.=.( o.O.O.|  . .@.X.O.@.XXA ' ) ` X.X.X.| ` ` -.` ` X.{ | O.` ( ` @.[ C M ",
"L T [ { X.O.` ` ` ` ` ` ` O.O.-.O.O.O.X.~ L L T ^ ( =.=._ ` -._ | | {.}.| {  .} [ ~ ~ { | { | | ` ` =.-.` X.| | @.` ` O.| [ C M ",
"L P P [ | { X.) ^ ) ) ) O.X.O.X.X.) ) X.~ L L I  .| @.X.#.#.X.) | {.{.{.{.| } R R Y T [ }  .}.}.` -.-._ ` X.| | { X.) X.| R I Z ",
"I P T } | |  .[ ~ ~ [ { { { { { ~ ~ [ [ P T T L {.} | | }.}.| { [ } {.|.{.| } R T L Y T P [ } [ X.O.` ` O.@.| R L [ [ | {.} ^ C ",
"L P [ | {.{.} T Y L T T } } } {.T T T ~ L Y T P T [ | | }.}.[ [ P T {.{.| } T T P I P I L Y T T T [ { ^ ^ ^ P P P T T | }.}.} T ",
"L P } {.}.}.{.} T T Y T T R {.|.} R T T L L T L [ } {.{.{.}.} T P [ } | R T P L I P P L L Y R R Y T P P P P P P T T {.{.}.{.} T ",
"I T } {.}.}.{.{.T T T L Y } {.}.{.} [ T L L L L R {.|. X|.{.R R T P L [ [ L L P T L Y Y L T } {.} } } T T L P L [ } {.}.}.| {.} ",
"J T }.{.}.}.}. .L T L L T  .| }.}.| T L L T L L R | }.| { [ [ P T I L L T L L L L L L L I T | |  .}.}.{.R T L L ~ } |.}.}.}.{. X"
};
