/* XPM */
static char *wall[] = {
/* columns rows colors chars-per-pixel */
"64 64 254 2 ",
"   c #521A33",
".  c #5A2539",
"X  c #6E273B",
"o  c #6F314D",
"O  c #653452",
"+  c #8A3A3C",
"@  c #934A3D",
"#  c #AA463C",
"$  c #EB773E",
"%  c #F77E33",
"&  c #E44F3B",
"*  c #8B3645",
"=  c #993446",
"-  c #983B59",
";  c #8B3156",
":  c #B83749",
">  c #BB3657",
",  c #A93B55",
"<  c #883A62",
"1  c #993C66",
"2  c #963B77",
"3  c #AB3968",
"4  c #B93867",
"5  c #A93F71",
"6  c #C6375A",
"7  c #CE385A",
"8  c #C83968",
"9  c #CE3669",
"0  c #984656",
"q  c #914F50",
"w  c #AB474C",
"e  c #BC564C",
"r  c #B74859",
"t  c #BA5556",
"y  c #AB4E54",
"u  c #A5685D",
"i  c #854365",
"p  c #984569",
"a  c #9C5868",
"s  c #884576",
"d  c #924674",
"f  c #9C5578",
"g  c #A84768",
"h  c #B64A65",
"j  c #A75668",
"k  c #BA5667",
"l  c #B84672",
"z  c #A45573",
"x  c #AA4C77",
"c  c #B76A66",
"v  c #BB7D6D",
"b  c #B26D75",
"n  c #9E6E5A",
"m  c #C64A4C",
"M  c #C8475A",
"N  c #D64959",
"B  c #C85958",
"V  c #DA5D55",
"C  c #D45C5C",
"Z  c #DB5C5C",
"A  c #D65556",
"S  c #D15A4A",
"D  c #E75448",
"F  c #E35A53",
"G  c #F1564C",
"H  c #CB664C",
"J  c #DB6649",
"K  c #CA6357",
"L  c #DD625C",
"P  c #D86655",
"I  c #DA7758",
"U  c #DC774B",
"Y  c #E36B4B",
"T  c #E9674C",
"R  c #EB744C",
"E  c #EE7C4C",
"W  c #E87849",
"Q  c #F47D45",
"!  c #F3764C",
"~  c #F47D4C",
"^  c #FA7D47",
"/  c #EB6C54",
"(  c #E2655C",
")  c #E56B5A",
"_  c #E76955",
"`  c #F46C55",
"'  c #EB7353",
"]  c #ED745C",
"[  c #ED7C5C",
"{  c #E67757",
"}  c #F17452",
"|  c #F37B54",
" . c #F3745C",
".. c #F37B5B",
"X. c #FA7857",
"o. c #C94765",
"O. c #D54964",
"+. c #C95566",
"@. c #D55563",
"#. c #DC5B63",
"$. c #D85867",
"%. c #D14E72",
"&. c #E55D66",
"*. c #E35E7D",
"=. c #CB6564",
"-. c #DC6263",
";. c #D66268",
":. c #D0776D",
">. c #E46462",
",. c #E76864",
"<. c #EC7463",
"1. c #F47562",
"2. c #F77A64",
"3. c #F36E67",
"4. c #F4833C",
"5. c #FA843B",
"6. c #FC8D3D",
"7. c #F78937",
"8. c #FC9433",
"9. c #FD933D",
"0. c #FB9B3C",
"q. c #F89839",
"w. c #F98F2E",
"e. c #FEAB2D",
"r. c #FDA728",
"t. c #FDA434",
"y. c #FCAA34",
"u. c #FCA43A",
"i. c #FEAB3B",
"p. c #F5A93B",
"a. c #B38276",
"s. c #CF905D",
"d. c #EF8245",
"f. c #F38344",
"g. c #FB8444",
"h. c #F58A44",
"j. c #FC8C43",
"k. c #F5824A",
"l. c #FA844B",
"z. c #FC8B4B",
"x. c #F68B4C",
"c. c #FE9344",
"v. c #FE9D44",
"b. c #FE924B",
"n. c #F7954A",
"m. c #EB8657",
"M. c #F48253",
"N. c #F98758",
"B. c #FC9556",
"V. c #EF934C",
"C. c #FEA343",
"Z. c #FFAA44",
"A. c #FCA54A",
"S. c #F7AA5C",
"D. c #F9BD5D",
"F. c #E8A95A",
"G. c #C98969",
"H. c #D79876",
"J. c #D29270",
"K. c #E98865",
"L. c #F78967",
"P. c #EA986A",
"I. c #FC9365",
"U. c #FD9B65",
"Y. c #F5946C",
"T. c #FE966C",
"R. c #F49B6C",
"E. c #FD9A6C",
"W. c #F59664",
"Q. c #F48D75",
"!. c #EC9A74",
"~. c #FD9673",
"^. c #FD9B72",
"/. c #FE967A",
"(. c #FE9D7B",
"). c #F59B74",
"_. c #DDA371",
"`. c #E8AA69",
"'. c #F4A36C",
"]. c #FDA46C",
"[. c #FCAC6C",
"{. c #F8A766",
"}. c #FCBC65",
"|. c #F4B56C",
" X c #FCB46E",
".X c #FDBD6C",
"XX c #F8BA66",
"oX c #E8AA78",
"OX c #F6A475",
"+X c #FCA373",
"@X c #F4AC74",
"#X c #FCAC74",
"$X c #F5A47D",
"%X c #FDA47C",
"&X c #F5AC7B",
"*X c #FDAB7C",
"=X c #E8B479",
"-X c #FDB374",
";X c #F5BC72",
":X c #FDBD73",
">X c #FDB47C",
",X c #F4BB7D",
"<X c #FDBC7B",
"1X c #F5B378",
"2X c #EFB764",
"3X c #FEC25B",
"4X c #F4C366",
"5X c #FDC365",
"6X c #FEC26C",
"7X c #FBC96B",
"8X c #F5C46C",
"9X c #F5C374",
"0X c #FDC273",
"qX c #FECA75",
"wX c #F5C47B",
"eX c #FEC47C",
"rX c #FECA7C",
"tX c #F4C977",
"yX c #FCD57A",
"uX c #B77985",
"iX c #B6698B",
"pX c #864481",
"aX c #C47E80",
"sX c #C45A82",
"dX c #C58887",
"fX c #D39484",
"gX c #FC9D83",
"hX c #DBA484",
"jX c #E5A889",
"kX c #FEA582",
"lX c #F5A983",
"zX c #FEAA83",
"xX c #FEA58B",
"cX c #FEAA8A",
"vX c #F4A88A",
"bX c #FEB483",
"nX c #F3BC83",
"mX c #FDBD83",
"MX c #FDB48A",
"NX c #FFBC8A",
"BX c #F5B687",
"VX c #F4B392",
"CX c #FDC483",
"ZX c #FECB83",
"AX c #FDC38B",
"SX c #F7CC8A",
"DX c #FDCA8A",
"FX c #F4C485",
"GX c #FBD189",
"HX c #FDC694",
"JX c #FDCC94",
"KX c #FCC99A",
"LX c #F6CC90",
"PX c #FFCFA3",
/* pixels */
"h.b.B.~.T.E.E.%XcXlXOX>X&XlX%X(.~.+X+X&X-X,X0XeXCXeXCX0X0X:X:X0X0XFXeXrX0X.X:XvXcX*XcX#XxX*XzX:X5X}..X{.{.*X*X%X*X].+X~.E.~.E.I.",
"U.U.E.~.~.U.^.%XjXkXkXkXkXcXcX+X*X>XmXCXCXeXeXeX4XeXCX6X6X0XqXFXNXCX0X<XZXZX0X0XeX@XlX0X4X4X,X7X.X.X:X-X:X>X<X<XOX^.^.^.T.~.T.T.",
"E.E.OX(.~.T.E.(.*XzX&XlXxXxX%XbX<XCXCXeXeXtXeXeXCXrXFX;X6XCXCXrXqX3X9XmX;X:XCXeX,XbX-X.X9X9XeX0X}..X:X-X#X#X[.[.+XE.E.T.T.~.T.E.",
"(.+X&X$XE.E.+X%XOXzX$XlXzXzX>X>XrXwXeXeXeXeXeXrXZX:XeX0X9XAXqX.X0X7X6X0X0X6XqX4XAX,XtX.XeX;XrX0X8X.X:X#X'.E.W.E.E.T.T.T.T.T.T.E.",
"(.*X1X>X+X+XOXY.~.~.OXbXmXmX<XeXeXrXeXeXZXCXCXeX<XeX0X5X6X:X7X6XrX9X2X0X0XXX0XoXf d s b 2XrXnX:X:X<X#X+XY.~.T.T.U.E.T.E.~.T.T.E.",
"*X#X:X>X*X>X@XR D Y s.,XCXrXwXZXCXCXeXCXeXCX<XwXFXrXFX.XXX-X>XwX}.>X X[.{..X=Xy r l.' h b CX0X<X*X+X%X^.E.E.E.E.T.^.~.~.^.E.T.E.",
"CX.X.X-X*XmX1XT P.E.L.K.P.eXrXwXeXeXeXeXeXeXrXrXDXeX1XoXa 2 l 8 8 8 M M h g p s W g.l.{ 1 G.1X&X%X^.^.E.E.E.I.I.~.%X%X+X^.E.T.T.",
"rX.X0X>XbXAX&X` |.>X!.m.K.-X[.#X|.-XeXrXeXeXrXtXrXJ.< k J R R | M.4.g.~ ! ' C ;.1.z.8.8.h dXNX#X*X+X+XE.E.T.T.^.^.*X%X%X%XE.E.E.",
"CXwX.X.XtXSX].` 1XeX:XW.] F D D F Y BXqX0X,X:.a.uXj K N.b.j.f.k.g.f.~ j.7.} 3.` ' h.c.z.+.z H.DXqXwXCX&X(.T.E.+XkXvXkX+X*X8XzX~.",
"wXrX9X0XeXSX+XT >XZX XR. .G G _ ) I BXZXZXiXk H t C x.8.6.b.c.~ Q k.h.c.n.x.M.R 2.| ( A B k z _.ZXmXCX>X*X+X+XE.E.&XbX#X>X7X@X].",
"mXeX9XZX>XHX&X{ '.CXCX@X1.G ) m.W.I BX0XDXa { g.R ^ 9.8.6.9.6...~ z.q.u.C.0.0.d.} !  .Z V ' c G.AXwXeX<XbX@X].I.].>XbX-X9X5X@XbX",
"9XeXwXCX} ' ) G ' K.E.E. .` L.L.Q.I |.6X<Xc 0.8.v.c.j.c.B.h.$ ..l.b.q.i.i.t.i.v.B.^ g.R >.} K G.0X:X6XeXZXNXbX-X X^.I W.-X.X>XzX",
"rXrXGXCXD & T G G / L.~.L.] T.I.K.K.:X<XeXc L v.V.n.c.c.c.M.' c.j.9.q.u.y.y.Z.y.c.z.4.d.] N h s.rX6X6XeXCX,X:X2XeXR.U L.:X.XbXkX",
"eX>XCXAXT 1./.L. .D ` T.%X$XzXY.N.<.&XrXKXhXt ~ x.j.b.8.w.d.| c.c.8.6.9.0.u.Z.y.u.0.4.7.| S sXVXrX9XeXeX0X0X6XD..XR.{.E.9X:X1XzX",
"wXZXDXAXT 2.%X^./.2.T 1.Y.%X*X~.N.N.<XeXjXa h.Q 5.j.c.u.y.n.E j.c.9.j.f.6.C.u.y.u.9.f.l.| ) y aXZXeXeX9X4X.X{.W W K.|.W.:X>X&XkX",
"ZX>XCXBX_  .^.@X$X^.G _ K.kXlX^.z.m.FXPXb k k.j.j.9.0.i.C.V.d.j.h.c.b.M.| v.r.i.i.9.N.^ Q L.w dXqXeXeX0XXX:XY.V D Q.rXR.<XzXlXxX",
"NXmXCXbXkXQ.<.zX*XgX~.B.z.z.z.c.V.>XFXGXiXW h.g.x.u.e.u.y.q.h.x.h.b.v.| } 6.c.n.9.9.Q M.~ } +.a.qXtXeX}.7X0Xm.<._ L.CXm.CXkXlXkX",
"&X>XCXmXkXQ.K.lX%XzX*X].B.V.V.B.{.eXKXfXp $ M.! d.v.i.p.i.i.n.d.c.c.j.k.k.9.9.9.c.c.d.Q } ,.r z jXDXAX.X.X:X!.2.T Y.bXL.).%XMX*X",
"OX#X<X,XzXxXkX*XBXmXCXZXCXeX0X0X:X0XBXj r f.M./ R c.y.u.u.i.0.M. .E ] | l.j.c.8.j.j.6.Q } ,.+.g u nXAX}..X6XP...} I...& J Q.bX+X",
"E.].>X1XOX*X*X*XlX>X9XeXCXrXrXeXCXyXnXc W 5.d.] _ x.e.e.p.y.e.i.u.u.C.u.0.z.b.9.6.z.f.f.|  .) ;.f _.ZX5X.X7XP.I.^.Y./  .X.$X&X].",
"~.^.>XzX*XkXzXzXcX>XrXrXwXwXeXeXFX7X=X:.6.% 4.| ) ' 0.i.Z.u.y.y.0.i.p.e.0.x.c.9.c.M.Q Q f.^ R N 1 u 9X:X}.JXR.Y.kX2.T L.` E.*XT.",
"%XgXkXkXcXcXcXxXkX>X<X-X<XeXrXCXAXZX=X=.X.g.z.| ] <.m.b.C.C.i.u.p.i.y.r.v.b.j.6.^ | | f.4.k.F 9 l b .X-X}.FXR.T.zX1.L.BXL.+X>XY.",
"*XzXzXzX%X$XlXzXzXkX*X-X:X0X<X0X0XAXfXg O.J W X. .3.<.E 7.0.u.t.Z.C.i.u.9.j.~ E  .R | l.g.M.O.9 > j |..X0XeXF.B.].E L.%XL.+X+X~.",
"-X-X-X#X-X-X>X*XbXcXlX-X6X.X9XeX6X`.f r 9 #.' ` } ! ] ,.Y Y { | 7.6.c.z.6.f.,.L 2.Y T X.Q m.M 7 8 - jX7X XFX7XB.7.n.%XY.P.bX>X@X",
".X.X6X}.6X:X.X X*X*X-X-X:X.X:X0XeXJ.r &.m B ,.2.) | ] [ Q R Z ) f.f.k.k.l.$ ~ R | ' $.) ( O.9 6 8 3 jX6X}.<X:X2X2XXX.X[.|.eX-X%X",
".X.X6X6X.X6X.X.X-X.X.X.X6X.X}.5X6XG.k #.M -.) ] ..R ) ~ N.l.' R 5.f.M.l.8.6.N.] Y #.sX! f.z.Y @.6 3 `.6X6X.X}.5X:X.X.X.X.X0X1XgX",
":X<X0X0X6X.X.X6X.X.X.X.X5X}.}..X3XJ.g M %.#.L { 1.' / 4.~ 7.~ | z.l.M.f.9.9.X.#.M J l.9.v.i.8...V 3 F.0X.X6X.X6X:X}.6X.X6X7X-XcX",
"#X>X<XeXeX0X6X}.6X:X6X.X0X.X:X:X5XjXp o.$.N V -.C L ) 4.j.4.' ~ z.j.6.7.z.j.f.A -.j.6.8.0.u.v.h.l.+._.6X.X6X X:X}.}..X,X:XrX<XbX",
"+X*XbXCXeXeX0X6X0X0X0X.X0X<X<XeXqXH.g @.@.A ,.@.A #.#.} z.| ) R j.c.8.j.N.g.f.-.Q 0.v.q.j.6.z.f.5.B :.0X0X6X.X.X0X0X0XbX<XrX<XbX",
"^.%X*X>XmXeXeXrX0X0X6X.X0X0X9XeX0XG.j L V L ( -.,.#.+.#.Y ( #.R j.c.c.j.b.z.| _ 4.u.Z.C.N.g.5.x.^ B f 9XqX8X5X0XeXrXrXeXeXrX>XgX",
"~.E.+X1X<XCXrXrX0X0X0X0X0X0XrXrXrXJ.k V #.-.S L #.A o.$.C F $.-.~ j.c.6.c.Q ' W n.A.A.t.6.f.j.l.N.P a BX0X;X}.0X>XrXrXwX0XrX-X/.",
"I.E.].#X<XZXrX0XCXCX0X:X0XeXeXCXDXG.g Z o.$.-.L $.A @.L $.J $.o.o._ Q k.} S V 3.E t.r.y.Z.q.v.l.X.W u BXZXCX6X:X0X0XrXAXCXeX#X/.",
"kX#XE.%XeXeXeXeXCXCXrX0X0X0X:XeXqXfXp M N %.S A +.o.&.C L K $.O.o.V &.#.C 8 @. .,.x.i.p.p.i.n.[ ' X.z XX6XCXeXeXeXeXeXeXeXeX>XE.",
"*X#X+X*XeXeXeXrXeXrXeXeX0X9X.X0X0XDXdXj >.&.>.o.8 7 @.-.A >.;.N @.P >.Z L $.M V Y ~ B.9.0.0.7.Q [  .a >XrX0XCXeXeXeXCXeXeXCX>X^.",
"-X>X%X>X0XeXCXCXeX0XeXCXCX<X0X7X<XrX=Xc ;.&.Z #.9 6 N ;.Z &.O.> #.P C C >.@.@.,.R  . .! ^ l.' ) { ) u &XtX0XCXeXeXCXCXeXeXCX>X*X",
":X>XlXbX0X0XCXrXrXrXeXeXeX0X0X6X0XtXBX=.N >.K N h 8 8 o.O.O.6 l +.A ( Z &.O.M <.<.<._ ' l.g.| ) <.L a >X7XeXeXeXeXwXeXeXeXrX>XzX",
".X>XkX*X6X0XmXeXCXrXeX0X0X.X:X.X0X6XCXv r O.;.p < 3 4 6 7 7 4 5 o.$.#.#.@.N M <...2.P ' g.5.l._ A B 0 >X5XrX>XqXeXrXeX0X0X9X>X#X",
"#X#X^.#X6X0X<XeXeXeXeX0X0X0X0X:XD.0X9XZXu p p d pXx 8 7 > 8 4 1 p 1 h > 7 7 > @.! 1.( Y Q ^ N.} ,.l H.8X0X0X<XtXeXrX0X6X6X0X-X].",
"kX#XE.+X:X0XeXeXZXeXeX:X:X.X.X.X9X3X0XnXHXVXjXf < < 3 8 8 o.l 2 i s 1 l 8 6 h h B -.( ' l.g.f.J =.1 `.3XeX6X.XeXeXeXeX0X0X6X XU.",
"xX+XU.+X0X6X0XtX0X9X:X-X-X-X.X5XwX3X:X0X7X0X7XFXjXv j 3 5 3 1 pXs 2 1 5 4 g x a x k C L ) W H k p G.0X;X6X.X:X6X<XeX0X:X0X0X#XI.",
"(.E.E.$X*X>XbX<X>X,X>X>XzX1X-X:X:X}.:X0XeXeXeXeXCXSXvXiXa.uXO O O O o 0 o i dXv o g k l k k j j G.1X0X.X.X.X.X.X0X.X6X.X6X0X{.R.",
"~.E.U.+X%XzX+X&XcXkXkX%X$X*X#X X6X.X6X0XeXeXeXCXDXHXLXFXDXwXn       ; o.X . u + = t r 1 q a.:.!.:X6X}.}.:X.X.X6X0X}..X0X.X:X{.~.",
"~.T.E.].xXkX*XxXxXxXkXzXzXbX>X0X.X.X.X0XeXZXCXCXFXCXSXZXmXGX=X. ; = 4 9 0 q w r r w * * J.LXmX<X7X5XD.D..X X.X}.6X}..X.X.X:X].~.",
"I./.E.+X%XkXkXkX%X%XzX*XOX-X:X:X.X.X:XeXeXeXeXeXAXGXFXHXVXPX_.. o + > 6 m J K # o 0 G.J.eX8X7X5X.X:X0X5X6X:X0X6X.X.X6X.X.X.X[.E.",
"E.%XkX>X-X>XkX%X+X+X%X+X^.'.].[.#X>X>XCXeXrXeXeXAXLXFXDXGXSXfXo ; m L > m L # oXZXeXeXZXeXeX0X6X X:X:X}.XX:X.X}.:X}.6X.X6X6X}.#X",
"R.+XzX-X}.-X$XU.E.+X(.(.~.T.~./.OX*XbXbXeXeXrXeXCXKXFXwXtXVX. + M S >.6 > , - hX<X6X;XZX0XeX:X3X3X.X.X:X.X0X6X5X:X.X}.|.6X5X6X:X",
"*X-X:X<X:X-XOX#XE.E./.~.~.T.~.^.*X*XzX>X:X0XeXeXwXSXSXFXPXO . S V J ' : @.w + fXHXZXeXnXqX0XmX.XD.}.}.0X.X}.}..X.X.X.X.X.X}..X>X",
"cX-X3XXXBX*X[.*X].E.E.E.E.].#X+X+X*X*X>X:X0XeXCXAXSXKXnXPXn e ] =.S ' C m V = 0 ;XFXZXrX6X}..X:X<X0X0X.X.X5X.X-X.X}.6X:X0X.X-X-X",
"kX>X.X-XzX-X}.<X}.].~.^.(.OX>XbXeX>X*X%XcXCXqXCXwXKXAXFXKXu = +.V _ m.e e  .w q VXCX0XeXeX:X0X0XoXlXoX1X0X6XXX7X9X5X5X:X0X4X-XxX",
"*X>X.X.X>X-X-X-X}.[.^./.%X>X<XeXZX>X>X*XzXCX0XCXrXCXZXrXSXjX= = # _ ..w r e + dXDXZX0XeX:X.X6X|.K.Y Y !.nX0X.X-X;X X.X-X.X5X#XvX",
"[.`.}.3X.X>X:X>X:X#X^.%X>XeXeXeXZXFXCX>XbX<X0XeX0XeX9XrXAXHXfXH.o.#.V : :.@XH.FXCXZX9XeX:X6X6X;X!.m.! ) H.;X<XmXmX&XCX0X0X:X%X*X",
"5.7.q.A.XX6X.X>X<X[.#X-X:X0X0XeXeXeXCXeX<XeX0X:XrXrX:XAXDXFXGXDXgXK H :.MXGXDXAXeXeX<XwX6X5X6X:XP.m.Y.2.{ P.R.I ] Y '.-X>X*X~.I.",
"% w.9.S. X6X6X0X:X:X-X<X.X6X0XeXeXeXeXeXeX:X:X<XwXrXZXAXmXrX8XtX9XeX8X<XCXtXtX<XqX0XeX0X.X4X6X,XK.Y.OX^.<.T R E.~.I oX<X|.@X(.].",
"7.z.E.[..X.X|.}..X6X.X.X.X.X0XCXeX0XeX0X6X-X#XeXCXrXrXeXeXrX:XDXeXDXSXDXCXqX8XCXeXeX0X0X.X6XeXmX/.s.'.~.M.] L.@XI.{ !.CX0X:X#X+X",
"z.I./.+X.X:X<X6X}..X:X6X.X.X0XeX0X:X:X.X.X#XOX>XAXeX.X.X0X0X:XnX0X,X,X>X>XCXeX>X>X:X6X6X}.:XeXmXgX#X{.I.L.P.oXMX`.!.oXeX6X6X[.B.",
"U.U.~.].D.5X0X}..X.X:X0X}.}..X.X8X0X:X.XXXE./.OX#X-XeX9X6X.X.X6X XMXkX*X*X-X0X=X>X:X5X6X:X:X,X1XVX`.F.@XoX=XnXhX!.>X0X0X;X<XB.w.",
"~.E.T.gXzX-X}..X0X6X}..X.X.X.X.X5X6X8X.X-XE.U.^.E.-X.X}..X.X.X.X:X*XzXzXOXkXcXkX*X^.+X*XbXzXzXzX-X:X.X5X}.:XbXkX1X:X.X}.:XzXB.w.",
"E.U.U.+X*X-X.X.X<X.X.X6X:XeX:X:X.X.X.X.X X].E.E.{. X6X6X6X6X6X.X<X*XkXzXzXzXkX%X+X^.R.%X%X%X%XzX>X-X.X7X6X:X*X*X*X-X-X.X-XlXB.w.",
"E.E.E.+X*XzX&X#X].E.].#X-X*X#X#X*X+X'.+X+X^.~.)./.%XlXkXkXzXlXkXOX+X+X%XzXkX%X^.E.E.E.E.E.^.+X*X%X>X-X:X.X-X-X#X%X+X#X#X*XkXI.B.",
"B.I./.^.%XxXxX%X^.~.T.E.%XkX%X%X%XR.E.+X+XE.E.E.^.%X&XkXxXkX%X+XgXE.E.zXcX%XE.E.T.E.T.T.E.E.~.^.(.^.#X#X[.[.[.+X^.~.(.zXlXzX^.I.",
"w.z./.(.*X%XzX%XkXOXY.T.Y.^.(.$X%X(.~.~.E.E.E.E.Y.+X&XzXkXkX$X^.gXT.E.kXcX^.W.E.T.T.E.E.T.T.^.^.^.^.^.].].E.E.^.~./.gXcX%X*X%X~.",
"% | /.(.kX%X*X%XbX%X^.T.~.(.%X%XkXkX(.^.Y.Y.^.~.^.*X*X&XkXzX%XE.Y.T.E.^.^.^.E.E.E.T.T.T.T.E.^.^.^.^.^.^.~.~.I.~.].(.%XkX%X*XkX^.",
"T ../.).xXkXcXkX%X^.I.T.~.%XgXkXzX*X%X^.^.+X].I.T.%XzX%XkXzX%X~.E.~.~.T.W.T.~.E.T.T.T.E.E.^.(.%X%X*XkX%X(.^.^.I.E.kX*X*XOXzXkX+X",
"( ..U.'.zXkXzX%XkX%X].+X*XzXcXzX%XlXkXkXkX%X(.L.{ OXNXMXlX&X>X#X#Xm.{ W.E.T.~.E.E.E.E.^.^.%X%XzXlXzXzXkXkX%X+XE.+XcXzX*X*XcXgX[."
};
